solid CATIA STL
  facet normal  -0.000000e+000  9.999999e-001  0.000000e+000
    outer loop
      vertex -4.603706e+000  1.000000e+001  1.058000e+002
      vertex -4.603706e+000  1.000000e+001  1.081500e+002
      vertex -1.019629e-012  1.000000e+001  1.081500e+002
    endloop
  endfacet
  facet normal  0.000000e+000  1.000000e+000  0.000000e+000
    outer loop
      vertex -4.603706e+000  1.000000e+001  1.058000e+002
      vertex -1.019629e-012  1.000000e+001  1.081500e+002
      vertex -4.603706e+000  1.000000e+001  9.600000e+001
    endloop
  endfacet
  facet normal  0.000000e+000  1.000000e+000  -0.000000e+000
    outer loop
      vertex -4.603706e+000  1.000000e+001  1.058000e+002
      vertex -4.603706e+000  1.000000e+001  9.600000e+001
      vertex -3.710371e+001  1.000000e+001  9.600000e+001
    endloop
  endfacet
  facet normal  0.000000e+000  1.000000e+000  0.000000e+000
    outer loop
      vertex -4.603706e+000  1.000000e+001  1.058000e+002
      vertex -3.710371e+001  1.000000e+001  9.600000e+001
      vertex -3.710371e+001  1.000000e+001  1.058000e+002
    endloop
  endfacet
  facet normal  0.000000e+000  1.000000e+000  0.000000e+000
    outer loop
      vertex -4.000000e+001  1.000000e+001  1.081500e+002
      vertex -3.710371e+001  1.000000e+001  1.081500e+002
      vertex -3.710371e+001  1.000000e+001  1.058000e+002
    endloop
  endfacet
  facet normal  0.000000e+000  9.999999e-001  0.000000e+000
    outer loop
      vertex -4.000000e+001  1.000000e+001  1.081500e+002
      vertex -3.710371e+001  1.000000e+001  1.058000e+002
      vertex -3.710371e+001  1.000000e+001  9.600000e+001
    endloop
  endfacet
  facet normal  0.000000e+000  1.000000e+000  0.000000e+000
    outer loop
      vertex -4.000000e+001  1.000000e+001  1.081500e+002
      vertex -3.710371e+001  1.000000e+001  9.600000e+001
      vertex -3.710371e+001  1.000000e+001  9.365000e+001
    endloop
  endfacet
  facet normal  0.000000e+000  1.000000e+000  0.000000e+000
    outer loop
      vertex -4.000000e+001  1.000000e+001  1.081500e+002
      vertex -3.710371e+001  1.000000e+001  9.365000e+001
      vertex -4.000000e+001  1.000000e+001  9.365000e+001
    endloop
  endfacet
  facet normal  0.000000e+000  1.000000e+000  0.000000e+000
    outer loop
      vertex  1.243450e-014  1.000000e+001  9.365000e+001
      vertex -4.603706e+000  1.000000e+001  9.365000e+001
      vertex -1.019629e-012  1.000000e+001  1.081500e+002
    endloop
  endfacet
  facet normal  0.000000e+000  1.000000e+000  0.000000e+000
    outer loop
      vertex -1.019629e-012  1.000000e+001  1.081500e+002
      vertex -4.603706e+000  1.000000e+001  9.365000e+001
      vertex -4.603706e+000  1.000000e+001  9.600000e+001
    endloop
  endfacet
  facet normal  0.000000e+000  1.000000e+000  0.000000e+000
    outer loop
      vertex -4.000000e+001  1.000000e+001  8.150000e+000
      vertex -3.710371e+001  1.000000e+001  8.150000e+000
      vertex -4.000000e+001  1.000000e+001  0.000000e+000
    endloop
  endfacet
  facet normal  0.000000e+000  9.999999e-001  0.000000e+000
    outer loop
      vertex -4.000000e+001  1.000000e+001  0.000000e+000
      vertex -3.710371e+001  1.000000e+001  8.150000e+000
      vertex -3.710371e+001  1.000000e+001  5.800000e+000
    endloop
  endfacet
  facet normal  0.000000e+000  9.999999e-001  0.000000e+000
    outer loop
      vertex -4.000000e+001  1.000000e+001  0.000000e+000
      vertex -3.710371e+001  1.000000e+001  5.800000e+000
      vertex  0.000000e+000  1.000000e+001  0.000000e+000
    endloop
  endfacet
  facet normal  0.000000e+000  1.000000e+000  0.000000e+000
    outer loop
      vertex  0.000000e+000  1.000000e+001  0.000000e+000
      vertex -3.710371e+001  1.000000e+001  5.800000e+000
      vertex -4.603706e+000  1.000000e+001  5.800000e+000
    endloop
  endfacet
  facet normal  -0.000000e+000  9.999999e-001  0.000000e+000
    outer loop
      vertex  0.000000e+000  1.000000e+001  0.000000e+000
      vertex -4.603706e+000  1.000000e+001  5.800000e+000
      vertex -1.019629e-012  1.000000e+001  8.150000e+000
    endloop
  endfacet
  facet normal  0.000000e+000  1.000000e+000  0.000000e+000
    outer loop
      vertex -1.019629e-012  1.000000e+001  8.150000e+000
      vertex -4.603706e+000  1.000000e+001  5.800000e+000
      vertex -4.603706e+000  1.000000e+001  8.150000e+000
    endloop
  endfacet
  facet normal  0.000000e+000  1.000000e+000  0.000000e+000
    outer loop
      vertex -4.000000e+001  1.000000e+001  2.815000e+001
      vertex -3.710371e+001  1.000000e+001  2.815000e+001
      vertex -3.710371e+001  1.000000e+001  2.580000e+001
    endloop
  endfacet
  facet normal  0.000000e+000  1.000000e+000  0.000000e+000
    outer loop
      vertex -4.000000e+001  1.000000e+001  2.815000e+001
      vertex -3.710371e+001  1.000000e+001  2.580000e+001
      vertex -3.710371e+001  1.000000e+001  1.600000e+001
    endloop
  endfacet
  facet normal  0.000000e+000  1.000000e+000  0.000000e+000
    outer loop
      vertex -4.000000e+001  1.000000e+001  2.815000e+001
      vertex -3.710371e+001  1.000000e+001  1.600000e+001
      vertex -3.710371e+001  1.000000e+001  1.365000e+001
    endloop
  endfacet
  facet normal  0.000000e+000  1.000000e+000  0.000000e+000
    outer loop
      vertex -4.000000e+001  1.000000e+001  2.815000e+001
      vertex -3.710371e+001  1.000000e+001  1.365000e+001
      vertex -4.000000e+001  1.000000e+001  1.365000e+001
    endloop
  endfacet
  facet normal  0.000000e+000  1.000000e+000  0.000000e+000
    outer loop
      vertex  1.243450e-014  1.000000e+001  1.365000e+001
      vertex -4.603706e+000  1.000000e+001  1.365000e+001
      vertex -4.603706e+000  1.000000e+001  1.600000e+001
    endloop
  endfacet
  facet normal  -0.000000e+000  1.000000e+000  0.000000e+000
    outer loop
      vertex  1.243450e-014  1.000000e+001  1.365000e+001
      vertex -4.603706e+000  1.000000e+001  1.600000e+001
      vertex -4.603706e+000  1.000000e+001  2.580000e+001
    endloop
  endfacet
  facet normal  -0.000000e+000  1.000000e+000  0.000000e+000
    outer loop
      vertex  1.243450e-014  1.000000e+001  1.365000e+001
      vertex -4.603706e+000  1.000000e+001  2.580000e+001
      vertex -4.603706e+000  1.000000e+001  2.815000e+001
    endloop
  endfacet
  facet normal  -0.000000e+000  1.000000e+000  0.000000e+000
    outer loop
      vertex  1.243450e-014  1.000000e+001  1.365000e+001
      vertex -4.603706e+000  1.000000e+001  2.815000e+001
      vertex -1.019629e-012  1.000000e+001  2.815000e+001
    endloop
  endfacet
  facet normal  0.000000e+000  1.000000e+000  -0.000000e+000
    outer loop
      vertex -4.603706e+000  1.000000e+001  2.580000e+001
      vertex -4.603706e+000  1.000000e+001  1.600000e+001
      vertex -3.710371e+001  1.000000e+001  2.580000e+001
    endloop
  endfacet
  facet normal  0.000000e+000  1.000000e+000  0.000000e+000
    outer loop
      vertex -3.710371e+001  1.000000e+001  2.580000e+001
      vertex -4.603706e+000  1.000000e+001  1.600000e+001
      vertex -3.710371e+001  1.000000e+001  1.600000e+001
    endloop
  endfacet
  facet normal  -0.000000e+000  1.000000e+000  0.000000e+000
    outer loop
      vertex -4.603706e+000  1.000000e+001  4.580000e+001
      vertex -4.603706e+000  1.000000e+001  4.815000e+001
      vertex -1.019629e-012  1.000000e+001  4.815000e+001
    endloop
  endfacet
  facet normal  0.000000e+000  1.000000e+000  -0.000000e+000
    outer loop
      vertex -3.710371e+001  1.000000e+001  3.600000e+001
      vertex -3.710371e+001  1.000000e+001  3.365000e+001
      vertex -4.000000e+001  1.000000e+001  3.365000e+001
    endloop
  endfacet
  facet normal  0.000000e+000  1.000000e+000  0.000000e+000
    outer loop
      vertex -3.710371e+001  1.000000e+001  3.600000e+001
      vertex -4.000000e+001  1.000000e+001  3.365000e+001
      vertex -3.710371e+001  1.000000e+001  4.580000e+001
    endloop
  endfacet
  facet normal  -0.000000e+000  1.000000e+000  0.000000e+000
    outer loop
      vertex -3.710371e+001  1.000000e+001  3.600000e+001
      vertex -3.710371e+001  1.000000e+001  4.580000e+001
      vertex -4.603706e+000  1.000000e+001  4.580000e+001
    endloop
  endfacet
  facet normal  0.000000e+000  1.000000e+000  0.000000e+000
    outer loop
      vertex -3.710371e+001  1.000000e+001  3.600000e+001
      vertex -4.603706e+000  1.000000e+001  4.580000e+001
      vertex -4.603706e+000  1.000000e+001  3.600000e+001
    endloop
  endfacet
  facet normal  0.000000e+000  1.000000e+000  0.000000e+000
    outer loop
      vertex  1.243450e-014  1.000000e+001  3.365000e+001
      vertex -4.603706e+000  1.000000e+001  3.365000e+001
      vertex -1.019629e-012  1.000000e+001  4.815000e+001
    endloop
  endfacet
  facet normal  0.000000e+000  1.000000e+000  0.000000e+000
    outer loop
      vertex -1.019629e-012  1.000000e+001  4.815000e+001
      vertex -4.603706e+000  1.000000e+001  3.365000e+001
      vertex -4.603706e+000  1.000000e+001  3.600000e+001
    endloop
  endfacet
  facet normal  0.000000e+000  1.000000e+000  0.000000e+000
    outer loop
      vertex -1.019629e-012  1.000000e+001  4.815000e+001
      vertex -4.603706e+000  1.000000e+001  3.600000e+001
      vertex -4.603706e+000  1.000000e+001  4.580000e+001
    endloop
  endfacet
  facet normal  0.000000e+000  1.000000e+000  0.000000e+000
    outer loop
      vertex -3.710371e+001  1.000000e+001  4.580000e+001
      vertex -4.000000e+001  1.000000e+001  3.365000e+001
      vertex -3.710371e+001  1.000000e+001  4.815000e+001
    endloop
  endfacet
  facet normal  0.000000e+000  1.000000e+000  0.000000e+000
    outer loop
      vertex -3.710371e+001  1.000000e+001  4.815000e+001
      vertex -4.000000e+001  1.000000e+001  3.365000e+001
      vertex -4.000000e+001  1.000000e+001  4.815000e+001
    endloop
  endfacet
  facet normal  -0.000000e+000  1.000000e+000  0.000000e+000
    outer loop
      vertex -3.710371e+001  1.000000e+001  6.580000e+001
      vertex -4.000000e+001  1.000000e+001  6.815000e+001
      vertex -3.710371e+001  1.000000e+001  6.815000e+001
    endloop
  endfacet
  facet normal  -0.000000e+000  9.999999e-001  0.000000e+000
    outer loop
      vertex -4.603706e+000  1.000000e+001  6.580000e+001
      vertex -4.603706e+000  1.000000e+001  6.815000e+001
      vertex -1.019629e-012  1.000000e+001  6.815000e+001
    endloop
  endfacet
  facet normal  0.000000e+000  1.000000e+000  0.000000e+000
    outer loop
      vertex -4.603706e+000  1.000000e+001  6.580000e+001
      vertex -1.019629e-012  1.000000e+001  6.815000e+001
      vertex -4.603706e+000  1.000000e+001  5.600000e+001
    endloop
  endfacet
  facet normal  0.000000e+000  1.000000e+000  -0.000000e+000
    outer loop
      vertex -4.603706e+000  1.000000e+001  6.580000e+001
      vertex -4.603706e+000  1.000000e+001  5.600000e+001
      vertex -3.710371e+001  1.000000e+001  5.600000e+001
    endloop
  endfacet
  facet normal  0.000000e+000  1.000000e+000  0.000000e+000
    outer loop
      vertex -4.603706e+000  1.000000e+001  6.580000e+001
      vertex -3.710371e+001  1.000000e+001  5.600000e+001
      vertex -3.710371e+001  1.000000e+001  6.580000e+001
    endloop
  endfacet
  facet normal  0.000000e+000  1.000000e+000  0.000000e+000
    outer loop
      vertex  1.243450e-014  1.000000e+001  5.365000e+001
      vertex -4.603706e+000  1.000000e+001  5.365000e+001
      vertex -1.019629e-012  1.000000e+001  6.815000e+001
    endloop
  endfacet
  facet normal  0.000000e+000  1.000000e+000  0.000000e+000
    outer loop
      vertex -1.019629e-012  1.000000e+001  6.815000e+001
      vertex -4.603706e+000  1.000000e+001  5.365000e+001
      vertex -4.603706e+000  1.000000e+001  5.600000e+001
    endloop
  endfacet
  facet normal  0.000000e+000  1.000000e+000  0.000000e+000
    outer loop
      vertex -3.710371e+001  1.000000e+001  5.365000e+001
      vertex -4.000000e+001  1.000000e+001  5.365000e+001
      vertex -3.710371e+001  1.000000e+001  5.600000e+001
    endloop
  endfacet
  facet normal  0.000000e+000  1.000000e+000  0.000000e+000
    outer loop
      vertex -3.710371e+001  1.000000e+001  5.600000e+001
      vertex -4.000000e+001  1.000000e+001  5.365000e+001
      vertex -4.000000e+001  1.000000e+001  6.815000e+001
    endloop
  endfacet
  facet normal  0.000000e+000  9.999999e-001  0.000000e+000
    outer loop
      vertex -3.710371e+001  1.000000e+001  5.600000e+001
      vertex -4.000000e+001  1.000000e+001  6.815000e+001
      vertex -3.710371e+001  1.000000e+001  6.580000e+001
    endloop
  endfacet
  facet normal  -0.000000e+000  9.999999e-001  0.000000e+000
    outer loop
      vertex -4.603706e+000  1.000000e+001  8.580000e+001
      vertex -4.603706e+000  1.000000e+001  8.815000e+001
      vertex -1.019629e-012  1.000000e+001  8.815000e+001
    endloop
  endfacet
  facet normal  0.000000e+000  1.000000e+000  0.000000e+000
    outer loop
      vertex -4.603706e+000  1.000000e+001  8.580000e+001
      vertex -1.019629e-012  1.000000e+001  8.815000e+001
      vertex -4.603706e+000  1.000000e+001  7.600000e+001
    endloop
  endfacet
  facet normal  0.000000e+000  1.000000e+000  -0.000000e+000
    outer loop
      vertex -4.603706e+000  1.000000e+001  8.580000e+001
      vertex -4.603706e+000  1.000000e+001  7.600000e+001
      vertex -3.710371e+001  1.000000e+001  7.600000e+001
    endloop
  endfacet
  facet normal  0.000000e+000  1.000000e+000  0.000000e+000
    outer loop
      vertex -4.603706e+000  1.000000e+001  8.580000e+001
      vertex -3.710371e+001  1.000000e+001  7.600000e+001
      vertex -3.710371e+001  1.000000e+001  8.580000e+001
    endloop
  endfacet
  facet normal  0.000000e+000  1.000000e+000  0.000000e+000
    outer loop
      vertex -4.000000e+001  1.000000e+001  8.815000e+001
      vertex -3.710371e+001  1.000000e+001  8.815000e+001
      vertex -3.710371e+001  1.000000e+001  8.580000e+001
    endloop
  endfacet
  facet normal  0.000000e+000  9.999999e-001  0.000000e+000
    outer loop
      vertex -4.000000e+001  1.000000e+001  8.815000e+001
      vertex -3.710371e+001  1.000000e+001  8.580000e+001
      vertex -3.710371e+001  1.000000e+001  7.600000e+001
    endloop
  endfacet
  facet normal  0.000000e+000  1.000000e+000  0.000000e+000
    outer loop
      vertex -4.000000e+001  1.000000e+001  8.815000e+001
      vertex -3.710371e+001  1.000000e+001  7.600000e+001
      vertex -3.710371e+001  1.000000e+001  7.365000e+001
    endloop
  endfacet
  facet normal  0.000000e+000  1.000000e+000  0.000000e+000
    outer loop
      vertex -4.000000e+001  1.000000e+001  8.815000e+001
      vertex -3.710371e+001  1.000000e+001  7.365000e+001
      vertex -4.000000e+001  1.000000e+001  7.365000e+001
    endloop
  endfacet
  facet normal  0.000000e+000  1.000000e+000  0.000000e+000
    outer loop
      vertex  1.243450e-014  1.000000e+001  7.365000e+001
      vertex -4.603706e+000  1.000000e+001  7.365000e+001
      vertex -1.019629e-012  1.000000e+001  8.815000e+001
    endloop
  endfacet
  facet normal  0.000000e+000  1.000000e+000  0.000000e+000
    outer loop
      vertex -1.019629e-012  1.000000e+001  8.815000e+001
      vertex -4.603706e+000  1.000000e+001  7.365000e+001
      vertex -4.603706e+000  1.000000e+001  7.600000e+001
    endloop
  endfacet
  facet normal  0.000000e+000  0.000000e+000 -1.000000e+000
    outer loop
      vertex -4.603706e+000  0.000000e+000  7.600000e+001
      vertex -3.710371e+001  0.000000e+000  7.600000e+001
      vertex -4.603706e+000  1.000000e+001  7.600000e+001
    endloop
  endfacet
  facet normal  -0.000000e+000  0.000000e+000 -1.000000e+000
    outer loop
      vertex -4.603706e+000  1.000000e+001  7.600000e+001
      vertex -3.710371e+001  0.000000e+000  7.600000e+001
      vertex -3.710371e+001  1.000000e+001  7.600000e+001
    endloop
  endfacet
  facet normal  0.000000e+000  0.000000e+000  1.000000e+000
    outer loop
      vertex -3.710371e+001  0.000000e+000  8.580000e+001
      vertex -4.603706e+000  0.000000e+000  8.580000e+001
      vertex -3.710371e+001  1.000000e+001  8.580000e+001
    endloop
  endfacet
  facet normal  -0.000000e+000  0.000000e+000  1.000000e+000
    outer loop
      vertex -3.710371e+001  1.000000e+001  8.580000e+001
      vertex -4.603706e+000  0.000000e+000  8.580000e+001
      vertex -4.603706e+000  1.000000e+001  8.580000e+001
    endloop
  endfacet
  facet normal  1.000000e+000  0.000000e+000  -0.000000e+000
    outer loop
      vertex -3.710371e+001  2.000000e+000  6.815000e+001
      vertex -3.710371e+001  1.000000e+001  6.580000e+001
      vertex -3.710371e+001  1.000000e+001  6.815000e+001
    endloop
  endfacet
  facet normal  1.000000e+000  0.000000e+000  0.000000e+000
    outer loop
      vertex -3.710371e+001  1.000000e+001  6.580000e+001
      vertex -3.710371e+001  2.000000e+000  6.815000e+001
      vertex -3.710371e+001  0.000000e+000  6.580000e+001
    endloop
  endfacet
  facet normal  1.000000e+000  0.000000e+000  0.000000e+000
    outer loop
      vertex -3.710371e+001  0.000000e+000  6.580000e+001
      vertex -3.710371e+001  2.000000e+000  6.815000e+001
      vertex -3.710371e+001  2.000000e+000  7.365000e+001
    endloop
  endfacet
  facet normal  1.000000e+000  0.000000e+000  0.000000e+000
    outer loop
      vertex -3.710371e+001  0.000000e+000  6.580000e+001
      vertex -3.710371e+001  2.000000e+000  7.365000e+001
      vertex -3.710371e+001  0.000000e+000  7.600000e+001
    endloop
  endfacet
  facet normal  1.000000e+000  0.000000e+000  0.000000e+000
    outer loop
      vertex -3.710371e+001  0.000000e+000  7.600000e+001
      vertex -3.710371e+001  2.000000e+000  7.365000e+001
      vertex -3.710371e+001  1.000000e+001  7.365000e+001
    endloop
  endfacet
  facet normal  1.000000e+000  0.000000e+000  -0.000000e+000
    outer loop
      vertex -3.710371e+001  0.000000e+000  7.600000e+001
      vertex -3.710371e+001  1.000000e+001  7.365000e+001
      vertex -3.710371e+001  1.000000e+001  7.600000e+001
    endloop
  endfacet
  facet normal  0.000000e+000  0.000000e+000  1.000000e+000
    outer loop
      vertex -3.710371e+001  0.000000e+000  6.580000e+001
      vertex -4.603706e+000  0.000000e+000  6.580000e+001
      vertex -3.710371e+001  1.000000e+001  6.580000e+001
    endloop
  endfacet
  facet normal  -0.000000e+000  0.000000e+000  1.000000e+000
    outer loop
      vertex -3.710371e+001  1.000000e+001  6.580000e+001
      vertex -4.603706e+000  0.000000e+000  6.580000e+001
      vertex -4.603706e+000  1.000000e+001  6.580000e+001
    endloop
  endfacet
  facet normal -1.000000e+000  0.000000e+000  0.000000e+000
    outer loop
      vertex -4.603706e+000  1.000000e+001  6.815000e+001
      vertex -4.603706e+000  1.000000e+001  6.580000e+001
      vertex -4.603706e+000  2.000000e+000  6.815000e+001
    endloop
  endfacet
  facet normal -1.000000e+000  0.000000e+000  -0.000000e+000
    outer loop
      vertex -4.603706e+000  2.000000e+000  6.815000e+001
      vertex -4.603706e+000  1.000000e+001  6.580000e+001
      vertex -4.603706e+000  0.000000e+000  6.580000e+001
    endloop
  endfacet
  facet normal -1.000000e+000  0.000000e+000  0.000000e+000
    outer loop
      vertex -4.603706e+000  2.000000e+000  6.815000e+001
      vertex -4.603706e+000  0.000000e+000  6.580000e+001
      vertex -4.603706e+000  2.000000e+000  7.365000e+001
    endloop
  endfacet
  facet normal -1.000000e+000  -0.000000e+000  0.000000e+000
    outer loop
      vertex -4.603706e+000  2.000000e+000  7.365000e+001
      vertex -4.603706e+000  0.000000e+000  6.580000e+001
      vertex -4.603706e+000  0.000000e+000  7.600000e+001
    endloop
  endfacet
  facet normal -1.000000e+000  0.000000e+000  0.000000e+000
    outer loop
      vertex -4.603706e+000  2.000000e+000  7.365000e+001
      vertex -4.603706e+000  0.000000e+000  7.600000e+001
      vertex -4.603706e+000  1.000000e+001  7.365000e+001
    endloop
  endfacet
  facet normal -1.000000e+000  0.000000e+000  0.000000e+000
    outer loop
      vertex -4.603706e+000  1.000000e+001  7.365000e+001
      vertex -4.603706e+000  0.000000e+000  7.600000e+001
      vertex -4.603706e+000  1.000000e+001  7.600000e+001
    endloop
  endfacet
  facet normal  0.000000e+000  0.000000e+000 -1.000000e+000
    outer loop
      vertex -4.603706e+000  0.000000e+000  5.600000e+001
      vertex -3.710371e+001  0.000000e+000  5.600000e+001
      vertex -4.603706e+000  1.000000e+001  5.600000e+001
    endloop
  endfacet
  facet normal  -0.000000e+000  0.000000e+000 -1.000000e+000
    outer loop
      vertex -4.603706e+000  1.000000e+001  5.600000e+001
      vertex -3.710371e+001  0.000000e+000  5.600000e+001
      vertex -3.710371e+001  1.000000e+001  5.600000e+001
    endloop
  endfacet
  facet normal  1.000000e+000  0.000000e+000  -0.000000e+000
    outer loop
      vertex -3.710371e+001  2.000000e+000  4.815000e+001
      vertex -3.710371e+001  1.000000e+001  4.580000e+001
      vertex -3.710371e+001  1.000000e+001  4.815000e+001
    endloop
  endfacet
  facet normal  1.000000e+000  0.000000e+000  0.000000e+000
    outer loop
      vertex -3.710371e+001  1.000000e+001  4.580000e+001
      vertex -3.710371e+001  2.000000e+000  4.815000e+001
      vertex -3.710371e+001  0.000000e+000  4.580000e+001
    endloop
  endfacet
  facet normal  1.000000e+000  0.000000e+000  0.000000e+000
    outer loop
      vertex -3.710371e+001  0.000000e+000  4.580000e+001
      vertex -3.710371e+001  2.000000e+000  4.815000e+001
      vertex -3.710371e+001  2.000000e+000  5.365000e+001
    endloop
  endfacet
  facet normal  1.000000e+000  0.000000e+000  0.000000e+000
    outer loop
      vertex -3.710371e+001  0.000000e+000  4.580000e+001
      vertex -3.710371e+001  2.000000e+000  5.365000e+001
      vertex -3.710371e+001  0.000000e+000  5.600000e+001
    endloop
  endfacet
  facet normal  1.000000e+000  0.000000e+000  0.000000e+000
    outer loop
      vertex -3.710371e+001  0.000000e+000  5.600000e+001
      vertex -3.710371e+001  2.000000e+000  5.365000e+001
      vertex -3.710371e+001  1.000000e+001  5.365000e+001
    endloop
  endfacet
  facet normal  1.000000e+000  0.000000e+000  -0.000000e+000
    outer loop
      vertex -3.710371e+001  0.000000e+000  5.600000e+001
      vertex -3.710371e+001  1.000000e+001  5.365000e+001
      vertex -3.710371e+001  1.000000e+001  5.600000e+001
    endloop
  endfacet
  facet normal  0.000000e+000  0.000000e+000  1.000000e+000
    outer loop
      vertex -3.710371e+001  0.000000e+000  4.580000e+001
      vertex -4.603706e+000  0.000000e+000  4.580000e+001
      vertex -3.710371e+001  1.000000e+001  4.580000e+001
    endloop
  endfacet
  facet normal  -0.000000e+000  0.000000e+000  1.000000e+000
    outer loop
      vertex -3.710371e+001  1.000000e+001  4.580000e+001
      vertex -4.603706e+000  0.000000e+000  4.580000e+001
      vertex -4.603706e+000  1.000000e+001  4.580000e+001
    endloop
  endfacet
  facet normal -1.000000e+000  0.000000e+000  0.000000e+000
    outer loop
      vertex -4.603706e+000  1.000000e+001  4.815000e+001
      vertex -4.603706e+000  1.000000e+001  4.580000e+001
      vertex -4.603706e+000  2.000000e+000  4.815000e+001
    endloop
  endfacet
  facet normal -1.000000e+000  0.000000e+000  -0.000000e+000
    outer loop
      vertex -4.603706e+000  2.000000e+000  4.815000e+001
      vertex -4.603706e+000  1.000000e+001  4.580000e+001
      vertex -4.603706e+000  0.000000e+000  4.580000e+001
    endloop
  endfacet
  facet normal -1.000000e+000  0.000000e+000  0.000000e+000
    outer loop
      vertex -4.603706e+000  2.000000e+000  4.815000e+001
      vertex -4.603706e+000  0.000000e+000  4.580000e+001
      vertex -4.603706e+000  2.000000e+000  5.365000e+001
    endloop
  endfacet
  facet normal -1.000000e+000  -0.000000e+000  0.000000e+000
    outer loop
      vertex -4.603706e+000  2.000000e+000  5.365000e+001
      vertex -4.603706e+000  0.000000e+000  4.580000e+001
      vertex -4.603706e+000  0.000000e+000  5.600000e+001
    endloop
  endfacet
  facet normal -1.000000e+000  0.000000e+000  0.000000e+000
    outer loop
      vertex -4.603706e+000  2.000000e+000  5.365000e+001
      vertex -4.603706e+000  0.000000e+000  5.600000e+001
      vertex -4.603706e+000  1.000000e+001  5.365000e+001
    endloop
  endfacet
  facet normal -1.000000e+000  0.000000e+000  0.000000e+000
    outer loop
      vertex -4.603706e+000  1.000000e+001  5.365000e+001
      vertex -4.603706e+000  0.000000e+000  5.600000e+001
      vertex -4.603706e+000  1.000000e+001  5.600000e+001
    endloop
  endfacet
  facet normal  0.000000e+000  0.000000e+000 -1.000000e+000
    outer loop
      vertex -4.603706e+000  0.000000e+000  3.600000e+001
      vertex -3.710371e+001  0.000000e+000  3.600000e+001
      vertex -4.603706e+000  1.000000e+001  3.600000e+001
    endloop
  endfacet
  facet normal  -0.000000e+000  0.000000e+000 -1.000000e+000
    outer loop
      vertex -4.603706e+000  1.000000e+001  3.600000e+001
      vertex -3.710371e+001  0.000000e+000  3.600000e+001
      vertex -3.710371e+001  1.000000e+001  3.600000e+001
    endloop
  endfacet
  facet normal  1.000000e+000  0.000000e+000  -0.000000e+000
    outer loop
      vertex -3.710371e+001  2.000000e+000  2.815000e+001
      vertex -3.710371e+001  1.000000e+001  2.580000e+001
      vertex -3.710371e+001  1.000000e+001  2.815000e+001
    endloop
  endfacet
  facet normal  1.000000e+000  0.000000e+000  0.000000e+000
    outer loop
      vertex -3.710371e+001  1.000000e+001  2.580000e+001
      vertex -3.710371e+001  2.000000e+000  2.815000e+001
      vertex -3.710371e+001  0.000000e+000  2.580000e+001
    endloop
  endfacet
  facet normal  9.999999e-001  0.000000e+000  0.000000e+000
    outer loop
      vertex -3.710371e+001  0.000000e+000  2.580000e+001
      vertex -3.710371e+001  2.000000e+000  2.815000e+001
      vertex -3.710371e+001  2.000000e+000  3.365000e+001
    endloop
  endfacet
  facet normal  1.000000e+000  0.000000e+000  0.000000e+000
    outer loop
      vertex -3.710371e+001  0.000000e+000  2.580000e+001
      vertex -3.710371e+001  2.000000e+000  3.365000e+001
      vertex -3.710371e+001  0.000000e+000  3.600000e+001
    endloop
  endfacet
  facet normal  1.000000e+000  0.000000e+000  0.000000e+000
    outer loop
      vertex -3.710371e+001  0.000000e+000  3.600000e+001
      vertex -3.710371e+001  2.000000e+000  3.365000e+001
      vertex -3.710371e+001  1.000000e+001  3.365000e+001
    endloop
  endfacet
  facet normal  1.000000e+000  0.000000e+000  -0.000000e+000
    outer loop
      vertex -3.710371e+001  0.000000e+000  3.600000e+001
      vertex -3.710371e+001  1.000000e+001  3.365000e+001
      vertex -3.710371e+001  1.000000e+001  3.600000e+001
    endloop
  endfacet
  facet normal  0.000000e+000  0.000000e+000 -1.000000e+000
    outer loop
      vertex -4.603706e+000  0.000000e+000  1.600000e+001
      vertex -3.710371e+001  0.000000e+000  1.600000e+001
      vertex -4.603706e+000  1.000000e+001  1.600000e+001
    endloop
  endfacet
  facet normal  -0.000000e+000  0.000000e+000 -1.000000e+000
    outer loop
      vertex -4.603706e+000  1.000000e+001  1.600000e+001
      vertex -3.710371e+001  0.000000e+000  1.600000e+001
      vertex -3.710371e+001  1.000000e+001  1.600000e+001
    endloop
  endfacet
  facet normal  0.000000e+000  0.000000e+000  1.000000e+000
    outer loop
      vertex -3.710371e+001  0.000000e+000  2.580000e+001
      vertex -4.603706e+000  0.000000e+000  2.580000e+001
      vertex -3.710371e+001  1.000000e+001  2.580000e+001
    endloop
  endfacet
  facet normal  -0.000000e+000  0.000000e+000  1.000000e+000
    outer loop
      vertex -3.710371e+001  1.000000e+001  2.580000e+001
      vertex -4.603706e+000  0.000000e+000  2.580000e+001
      vertex -4.603706e+000  1.000000e+001  2.580000e+001
    endloop
  endfacet
  facet normal -1.000000e+000  0.000000e+000  0.000000e+000
    outer loop
      vertex -4.603706e+000  1.000000e+001  2.815000e+001
      vertex -4.603706e+000  1.000000e+001  2.580000e+001
      vertex -4.603706e+000  2.000000e+000  2.815000e+001
    endloop
  endfacet
  facet normal -1.000000e+000  0.000000e+000  -0.000000e+000
    outer loop
      vertex -4.603706e+000  2.000000e+000  2.815000e+001
      vertex -4.603706e+000  1.000000e+001  2.580000e+001
      vertex -4.603706e+000  0.000000e+000  2.580000e+001
    endloop
  endfacet
  facet normal -9.999999e-001  0.000000e+000  0.000000e+000
    outer loop
      vertex -4.603706e+000  2.000000e+000  2.815000e+001
      vertex -4.603706e+000  0.000000e+000  2.580000e+001
      vertex -4.603706e+000  2.000000e+000  3.365000e+001
    endloop
  endfacet
  facet normal -1.000000e+000  -0.000000e+000  0.000000e+000
    outer loop
      vertex -4.603706e+000  2.000000e+000  3.365000e+001
      vertex -4.603706e+000  0.000000e+000  2.580000e+001
      vertex -4.603706e+000  0.000000e+000  3.600000e+001
    endloop
  endfacet
  facet normal -1.000000e+000  0.000000e+000  0.000000e+000
    outer loop
      vertex -4.603706e+000  2.000000e+000  3.365000e+001
      vertex -4.603706e+000  0.000000e+000  3.600000e+001
      vertex -4.603706e+000  1.000000e+001  3.365000e+001
    endloop
  endfacet
  facet normal -1.000000e+000  0.000000e+000  0.000000e+000
    outer loop
      vertex -4.603706e+000  1.000000e+001  3.365000e+001
      vertex -4.603706e+000  0.000000e+000  3.600000e+001
      vertex -4.603706e+000  1.000000e+001  3.600000e+001
    endloop
  endfacet
  facet normal  1.000000e+000  0.000000e+000  -0.000000e+000
    outer loop
      vertex -3.710371e+001  2.000000e+000  8.150000e+000
      vertex -3.710371e+001  1.000000e+001  5.800000e+000
      vertex -3.710371e+001  1.000000e+001  8.150000e+000
    endloop
  endfacet
  facet normal  1.000000e+000  0.000000e+000  0.000000e+000
    outer loop
      vertex -3.710371e+001  1.000000e+001  5.800000e+000
      vertex -3.710371e+001  2.000000e+000  8.150000e+000
      vertex -3.710371e+001  0.000000e+000  5.800000e+000
    endloop
  endfacet
  facet normal  1.000000e+000  0.000000e+000  0.000000e+000
    outer loop
      vertex -3.710371e+001  0.000000e+000  5.800000e+000
      vertex -3.710371e+001  2.000000e+000  8.150000e+000
      vertex -3.710371e+001  2.000000e+000  1.365000e+001
    endloop
  endfacet
  facet normal  1.000000e+000  0.000000e+000  0.000000e+000
    outer loop
      vertex -3.710371e+001  0.000000e+000  5.800000e+000
      vertex -3.710371e+001  2.000000e+000  1.365000e+001
      vertex -3.710371e+001  0.000000e+000  1.600000e+001
    endloop
  endfacet
  facet normal  1.000000e+000  0.000000e+000  0.000000e+000
    outer loop
      vertex -3.710371e+001  0.000000e+000  1.600000e+001
      vertex -3.710371e+001  2.000000e+000  1.365000e+001
      vertex -3.710371e+001  1.000000e+001  1.365000e+001
    endloop
  endfacet
  facet normal  1.000000e+000  0.000000e+000  -0.000000e+000
    outer loop
      vertex -3.710371e+001  0.000000e+000  1.600000e+001
      vertex -3.710371e+001  1.000000e+001  1.365000e+001
      vertex -3.710371e+001  1.000000e+001  1.600000e+001
    endloop
  endfacet
  facet normal  0.000000e+000  0.000000e+000  1.000000e+000
    outer loop
      vertex -3.710371e+001  0.000000e+000  5.800000e+000
      vertex -4.603706e+000  0.000000e+000  5.800000e+000
      vertex -3.710371e+001  1.000000e+001  5.800000e+000
    endloop
  endfacet
  facet normal  -0.000000e+000  0.000000e+000  1.000000e+000
    outer loop
      vertex -3.710371e+001  1.000000e+001  5.800000e+000
      vertex -4.603706e+000  0.000000e+000  5.800000e+000
      vertex -4.603706e+000  1.000000e+001  5.800000e+000
    endloop
  endfacet
  facet normal -1.000000e+000  0.000000e+000  0.000000e+000
    outer loop
      vertex -4.603706e+000  1.000000e+001  8.150000e+000
      vertex -4.603706e+000  1.000000e+001  5.800000e+000
      vertex -4.603706e+000  2.000000e+000  8.150000e+000
    endloop
  endfacet
  facet normal -1.000000e+000  0.000000e+000  -0.000000e+000
    outer loop
      vertex -4.603706e+000  2.000000e+000  8.150000e+000
      vertex -4.603706e+000  1.000000e+001  5.800000e+000
      vertex -4.603706e+000  0.000000e+000  5.800000e+000
    endloop
  endfacet
  facet normal -1.000000e+000  0.000000e+000  0.000000e+000
    outer loop
      vertex -4.603706e+000  2.000000e+000  8.150000e+000
      vertex -4.603706e+000  0.000000e+000  5.800000e+000
      vertex -4.603706e+000  2.000000e+000  1.365000e+001
    endloop
  endfacet
  facet normal -1.000000e+000  -0.000000e+000  0.000000e+000
    outer loop
      vertex -4.603706e+000  2.000000e+000  1.365000e+001
      vertex -4.603706e+000  0.000000e+000  5.800000e+000
      vertex -4.603706e+000  0.000000e+000  1.600000e+001
    endloop
  endfacet
  facet normal -1.000000e+000  0.000000e+000  0.000000e+000
    outer loop
      vertex -4.603706e+000  2.000000e+000  1.365000e+001
      vertex -4.603706e+000  0.000000e+000  1.600000e+001
      vertex -4.603706e+000  1.000000e+001  1.365000e+001
    endloop
  endfacet
  facet normal -1.000000e+000  0.000000e+000  0.000000e+000
    outer loop
      vertex -4.603706e+000  1.000000e+001  1.365000e+001
      vertex -4.603706e+000  0.000000e+000  1.600000e+001
      vertex -4.603706e+000  1.000000e+001  1.600000e+001
    endloop
  endfacet
  facet normal -1.000000e+000  0.000000e+000  0.000000e+000
    outer loop
      vertex -4.603706e+000  1.000000e+001  9.600000e+001
      vertex -4.603706e+000  1.000000e+001  9.365000e+001
      vertex -4.603706e+000  0.000000e+000  9.600000e+001
    endloop
  endfacet
  facet normal -1.000000e+000  0.000000e+000  0.000000e+000
    outer loop
      vertex -4.603706e+000  0.000000e+000  9.600000e+001
      vertex -4.603706e+000  1.000000e+001  9.365000e+001
      vertex -4.603706e+000  2.000000e+000  9.365000e+001
    endloop
  endfacet
  facet normal -1.000000e+000  -0.000000e+000  0.000000e+000
    outer loop
      vertex -4.603706e+000  0.000000e+000  9.600000e+001
      vertex -4.603706e+000  2.000000e+000  9.365000e+001
      vertex -4.603706e+000  0.000000e+000  8.580000e+001
    endloop
  endfacet
  facet normal -1.000000e+000  0.000000e+000  0.000000e+000
    outer loop
      vertex -4.603706e+000  0.000000e+000  8.580000e+001
      vertex -4.603706e+000  2.000000e+000  9.365000e+001
      vertex -4.603706e+000  2.000000e+000  8.815000e+001
    endloop
  endfacet
  facet normal -1.000000e+000  0.000000e+000  -0.000000e+000
    outer loop
      vertex -4.603706e+000  0.000000e+000  8.580000e+001
      vertex -4.603706e+000  2.000000e+000  8.815000e+001
      vertex -4.603706e+000  1.000000e+001  8.580000e+001
    endloop
  endfacet
  facet normal -1.000000e+000  0.000000e+000  0.000000e+000
    outer loop
      vertex -4.603706e+000  1.000000e+001  8.580000e+001
      vertex -4.603706e+000  2.000000e+000  8.815000e+001
      vertex -4.603706e+000  1.000000e+001  8.815000e+001
    endloop
  endfacet
  facet normal  0.000000e+000  0.000000e+000 -1.000000e+000
    outer loop
      vertex -4.603706e+000  0.000000e+000  9.600000e+001
      vertex -3.710371e+001  0.000000e+000  9.600000e+001
      vertex -4.603706e+000  1.000000e+001  9.600000e+001
    endloop
  endfacet
  facet normal  -0.000000e+000  0.000000e+000 -1.000000e+000
    outer loop
      vertex -4.603706e+000  1.000000e+001  9.600000e+001
      vertex -3.710371e+001  0.000000e+000  9.600000e+001
      vertex -3.710371e+001  1.000000e+001  9.600000e+001
    endloop
  endfacet
  facet normal  1.000000e+000  0.000000e+000  -0.000000e+000
    outer loop
      vertex -3.710371e+001  0.000000e+000  9.600000e+001
      vertex -3.710371e+001  1.000000e+001  9.365000e+001
      vertex -3.710371e+001  1.000000e+001  9.600000e+001
    endloop
  endfacet
  facet normal  1.000000e+000  0.000000e+000  0.000000e+000
    outer loop
      vertex -3.710371e+001  1.000000e+001  9.365000e+001
      vertex -3.710371e+001  0.000000e+000  9.600000e+001
      vertex -3.710371e+001  2.000000e+000  9.365000e+001
    endloop
  endfacet
  facet normal  1.000000e+000  0.000000e+000  0.000000e+000
    outer loop
      vertex -3.710371e+001  2.000000e+000  9.365000e+001
      vertex -3.710371e+001  0.000000e+000  9.600000e+001
      vertex -3.710371e+001  0.000000e+000  8.580000e+001
    endloop
  endfacet
  facet normal  1.000000e+000  0.000000e+000  0.000000e+000
    outer loop
      vertex -3.710371e+001  2.000000e+000  9.365000e+001
      vertex -3.710371e+001  0.000000e+000  8.580000e+001
      vertex -3.710371e+001  2.000000e+000  8.815000e+001
    endloop
  endfacet
  facet normal  1.000000e+000  0.000000e+000  0.000000e+000
    outer loop
      vertex -3.710371e+001  2.000000e+000  8.815000e+001
      vertex -3.710371e+001  0.000000e+000  8.580000e+001
      vertex -3.710371e+001  1.000000e+001  8.580000e+001
    endloop
  endfacet
  facet normal  1.000000e+000  0.000000e+000  -0.000000e+000
    outer loop
      vertex -3.710371e+001  2.000000e+000  8.815000e+001
      vertex -3.710371e+001  1.000000e+001  8.580000e+001
      vertex -3.710371e+001  1.000000e+001  8.815000e+001
    endloop
  endfacet
  facet normal  0.000000e+000 -1.000000e+000  0.000000e+000
    outer loop
      vertex -4.263256e-014  0.000000e+000  1.200000e+002
      vertex -4.000000e+001  0.000000e+000  1.200000e+002
      vertex -3.710371e+001  0.000000e+000  1.160000e+002
    endloop
  endfacet
  facet normal  0.000000e+000 -1.000000e+000  0.000000e+000
    outer loop
      vertex -4.263256e-014  0.000000e+000  1.200000e+002
      vertex -3.710371e+001  0.000000e+000  1.160000e+002
      vertex -4.603706e+000  0.000000e+000  1.160000e+002
    endloop
  endfacet
  facet normal  0.000000e+000 -1.000000e+000  0.000000e+000
    outer loop
      vertex -4.263256e-014  0.000000e+000  1.200000e+002
      vertex -4.603706e+000  0.000000e+000  1.160000e+002
      vertex -4.603706e+000  0.000000e+000  1.058000e+002
    endloop
  endfacet
  facet normal  0.000000e+000 -1.000000e+000  0.000000e+000
    outer loop
      vertex -4.263256e-014  0.000000e+000  1.200000e+002
      vertex -4.603706e+000  0.000000e+000  1.058000e+002
      vertex -4.603706e+000  0.000000e+000  9.600000e+001
    endloop
  endfacet
  facet normal  0.000000e+000 -1.000000e+000  0.000000e+000
    outer loop
      vertex -4.263256e-014  0.000000e+000  1.200000e+002
      vertex -4.603706e+000  0.000000e+000  9.600000e+001
      vertex -4.603706e+000  0.000000e+000  8.580000e+001
    endloop
  endfacet
  facet normal  0.000000e+000 -1.000000e+000  0.000000e+000
    outer loop
      vertex -4.263256e-014  0.000000e+000  1.200000e+002
      vertex -4.603706e+000  0.000000e+000  8.580000e+001
      vertex -4.603706e+000  0.000000e+000  7.600000e+001
    endloop
  endfacet
  facet normal  0.000000e+000 -1.000000e+000  0.000000e+000
    outer loop
      vertex -4.263256e-014  0.000000e+000  1.200000e+002
      vertex -4.603706e+000  0.000000e+000  7.600000e+001
      vertex -4.603706e+000  0.000000e+000  6.580000e+001
    endloop
  endfacet
  facet normal  0.000000e+000 -1.000000e+000  0.000000e+000
    outer loop
      vertex -4.263256e-014  0.000000e+000  1.200000e+002
      vertex -4.603706e+000  0.000000e+000  6.580000e+001
      vertex -4.603706e+000  0.000000e+000  5.600000e+001
    endloop
  endfacet
  facet normal  0.000000e+000 -9.999999e-001  0.000000e+000
    outer loop
      vertex -4.263256e-014  0.000000e+000  1.200000e+002
      vertex -4.603706e+000  0.000000e+000  5.600000e+001
      vertex -4.603706e+000  0.000000e+000  4.580000e+001
    endloop
  endfacet
  facet normal  0.000000e+000 -1.000000e+000  0.000000e+000
    outer loop
      vertex -4.263256e-014  0.000000e+000  1.200000e+002
      vertex -4.603706e+000  0.000000e+000  4.580000e+001
      vertex -4.603706e+000  0.000000e+000  3.600000e+001
    endloop
  endfacet
  facet normal  0.000000e+000 -9.999999e-001  0.000000e+000
    outer loop
      vertex -4.263256e-014  0.000000e+000  1.200000e+002
      vertex -4.603706e+000  0.000000e+000  3.600000e+001
      vertex -4.603706e+000  0.000000e+000  2.580000e+001
    endloop
  endfacet
  facet normal  0.000000e+000 -1.000000e+000  0.000000e+000
    outer loop
      vertex -4.263256e-014  0.000000e+000  1.200000e+002
      vertex -4.603706e+000  0.000000e+000  2.580000e+001
      vertex -4.603706e+000  0.000000e+000  1.600000e+001
    endloop
  endfacet
  facet normal  0.000000e+000 -9.999999e-001  0.000000e+000
    outer loop
      vertex -4.263256e-014  0.000000e+000  1.200000e+002
      vertex -4.603706e+000  0.000000e+000  1.600000e+001
      vertex -4.603706e+000  0.000000e+000  5.800000e+000
    endloop
  endfacet
  facet normal  0.000000e+000 -1.000000e+000  0.000000e+000
    outer loop
      vertex -4.263256e-014  0.000000e+000  1.200000e+002
      vertex -4.603706e+000  0.000000e+000  5.800000e+000
      vertex  0.000000e+000  0.000000e+000  0.000000e+000
    endloop
  endfacet
  facet normal  0.000000e+000 -1.000000e+000  0.000000e+000
    outer loop
      vertex -4.000000e+001  0.000000e+000  1.200000e+002
      vertex -4.000000e+001  0.000000e+000  0.000000e+000
      vertex -3.710371e+001  0.000000e+000  5.800000e+000
    endloop
  endfacet
  facet normal  0.000000e+000 -9.999999e-001  0.000000e+000
    outer loop
      vertex -4.000000e+001  0.000000e+000  1.200000e+002
      vertex -3.710371e+001  0.000000e+000  5.800000e+000
      vertex -3.710371e+001  0.000000e+000  1.600000e+001
    endloop
  endfacet
  facet normal  0.000000e+000 -1.000000e+000  0.000000e+000
    outer loop
      vertex -4.000000e+001  0.000000e+000  1.200000e+002
      vertex -3.710371e+001  0.000000e+000  1.600000e+001
      vertex -3.710371e+001  0.000000e+000  2.580000e+001
    endloop
  endfacet
  facet normal  0.000000e+000 -1.000000e+000  0.000000e+000
    outer loop
      vertex -4.000000e+001  0.000000e+000  1.200000e+002
      vertex -3.710371e+001  0.000000e+000  2.580000e+001
      vertex -3.710371e+001  0.000000e+000  3.600000e+001
    endloop
  endfacet
  facet normal  0.000000e+000 -1.000000e+000  0.000000e+000
    outer loop
      vertex -4.000000e+001  0.000000e+000  1.200000e+002
      vertex -3.710371e+001  0.000000e+000  3.600000e+001
      vertex -3.710371e+001  0.000000e+000  4.580000e+001
    endloop
  endfacet
  facet normal  0.000000e+000 -1.000000e+000  0.000000e+000
    outer loop
      vertex -4.000000e+001  0.000000e+000  1.200000e+002
      vertex -3.710371e+001  0.000000e+000  4.580000e+001
      vertex -3.710371e+001  0.000000e+000  5.600000e+001
    endloop
  endfacet
  facet normal  0.000000e+000 -9.999999e-001  0.000000e+000
    outer loop
      vertex -4.000000e+001  0.000000e+000  1.200000e+002
      vertex -3.710371e+001  0.000000e+000  5.600000e+001
      vertex -3.710371e+001  0.000000e+000  6.580000e+001
    endloop
  endfacet
  facet normal  0.000000e+000 -1.000000e+000  0.000000e+000
    outer loop
      vertex -4.000000e+001  0.000000e+000  1.200000e+002
      vertex -3.710371e+001  0.000000e+000  6.580000e+001
      vertex -3.710371e+001  0.000000e+000  7.600000e+001
    endloop
  endfacet
  facet normal  0.000000e+000 -9.999999e-001  0.000000e+000
    outer loop
      vertex -4.000000e+001  0.000000e+000  1.200000e+002
      vertex -3.710371e+001  0.000000e+000  7.600000e+001
      vertex -3.710371e+001  0.000000e+000  8.580000e+001
    endloop
  endfacet
  facet normal  0.000000e+000 -1.000000e+000  0.000000e+000
    outer loop
      vertex -4.000000e+001  0.000000e+000  1.200000e+002
      vertex -3.710371e+001  0.000000e+000  8.580000e+001
      vertex -3.710371e+001  0.000000e+000  9.600000e+001
    endloop
  endfacet
  facet normal  0.000000e+000 -9.999999e-001  0.000000e+000
    outer loop
      vertex -4.000000e+001  0.000000e+000  1.200000e+002
      vertex -3.710371e+001  0.000000e+000  9.600000e+001
      vertex -3.710371e+001  0.000000e+000  1.058000e+002
    endloop
  endfacet
  facet normal  0.000000e+000 -1.000000e+000  0.000000e+000
    outer loop
      vertex -4.000000e+001  0.000000e+000  1.200000e+002
      vertex -3.710371e+001  0.000000e+000  1.058000e+002
      vertex -3.710371e+001  0.000000e+000  1.160000e+002
    endloop
  endfacet
  facet normal  0.000000e+000 -1.000000e+000  0.000000e+000
    outer loop
      vertex -3.710371e+001  0.000000e+000  1.058000e+002
      vertex -3.710371e+001  0.000000e+000  9.600000e+001
      vertex -4.603706e+000  0.000000e+000  1.058000e+002
    endloop
  endfacet
  facet normal  0.000000e+000 -1.000000e+000  -0.000000e+000
    outer loop
      vertex -4.603706e+000  0.000000e+000  1.058000e+002
      vertex -3.710371e+001  0.000000e+000  9.600000e+001
      vertex -4.603706e+000  0.000000e+000  9.600000e+001
    endloop
  endfacet
  facet normal  0.000000e+000 -1.000000e+000  0.000000e+000
    outer loop
      vertex -3.710371e+001  0.000000e+000  8.580000e+001
      vertex -3.710371e+001  0.000000e+000  7.600000e+001
      vertex -4.603706e+000  0.000000e+000  8.580000e+001
    endloop
  endfacet
  facet normal  0.000000e+000 -1.000000e+000  -0.000000e+000
    outer loop
      vertex -4.603706e+000  0.000000e+000  8.580000e+001
      vertex -3.710371e+001  0.000000e+000  7.600000e+001
      vertex -4.603706e+000  0.000000e+000  7.600000e+001
    endloop
  endfacet
  facet normal  0.000000e+000 -1.000000e+000  0.000000e+000
    outer loop
      vertex -3.710371e+001  0.000000e+000  6.580000e+001
      vertex -3.710371e+001  0.000000e+000  5.600000e+001
      vertex -4.603706e+000  0.000000e+000  6.580000e+001
    endloop
  endfacet
  facet normal  0.000000e+000 -1.000000e+000  -0.000000e+000
    outer loop
      vertex -4.603706e+000  0.000000e+000  6.580000e+001
      vertex -3.710371e+001  0.000000e+000  5.600000e+001
      vertex -4.603706e+000  0.000000e+000  5.600000e+001
    endloop
  endfacet
  facet normal  0.000000e+000 -1.000000e+000  0.000000e+000
    outer loop
      vertex -3.710371e+001  0.000000e+000  4.580000e+001
      vertex -3.710371e+001  0.000000e+000  3.600000e+001
      vertex -4.603706e+000  0.000000e+000  4.580000e+001
    endloop
  endfacet
  facet normal  0.000000e+000 -1.000000e+000  -0.000000e+000
    outer loop
      vertex -4.603706e+000  0.000000e+000  4.580000e+001
      vertex -3.710371e+001  0.000000e+000  3.600000e+001
      vertex -4.603706e+000  0.000000e+000  3.600000e+001
    endloop
  endfacet
  facet normal  0.000000e+000 -1.000000e+000  0.000000e+000
    outer loop
      vertex -3.710371e+001  0.000000e+000  2.580000e+001
      vertex -3.710371e+001  0.000000e+000  1.600000e+001
      vertex -4.603706e+000  0.000000e+000  2.580000e+001
    endloop
  endfacet
  facet normal  0.000000e+000 -1.000000e+000  -0.000000e+000
    outer loop
      vertex -4.603706e+000  0.000000e+000  2.580000e+001
      vertex -3.710371e+001  0.000000e+000  1.600000e+001
      vertex -4.603706e+000  0.000000e+000  1.600000e+001
    endloop
  endfacet
  facet normal  0.000000e+000 -1.000000e+000  0.000000e+000
    outer loop
      vertex -3.710371e+001  0.000000e+000  5.800000e+000
      vertex -4.000000e+001  0.000000e+000  0.000000e+000
      vertex -4.603706e+000  0.000000e+000  5.800000e+000
    endloop
  endfacet
  facet normal  0.000000e+000 -1.000000e+000  -0.000000e+000
    outer loop
      vertex -4.603706e+000  0.000000e+000  5.800000e+000
      vertex -4.000000e+001  0.000000e+000  0.000000e+000
      vertex  0.000000e+000  0.000000e+000  0.000000e+000
    endloop
  endfacet
  facet normal  0.000000e+000  1.000000e+000  0.000000e+000
    outer loop
      vertex -4.000000e+001  2.000000e+000  8.815000e+001
      vertex -4.000000e+001  2.000000e+000  9.365000e+001
      vertex -3.710371e+001  2.000000e+000  8.815000e+001
    endloop
  endfacet
  facet normal  0.000000e+000  1.000000e+000  -0.000000e+000
    outer loop
      vertex -3.710371e+001  2.000000e+000  8.815000e+001
      vertex -4.000000e+001  2.000000e+000  9.365000e+001
      vertex -3.710371e+001  2.000000e+000  9.365000e+001
    endloop
  endfacet
  facet normal  0.000000e+000  1.000000e+000  0.000000e+000
    outer loop
      vertex -4.603706e+000  2.000000e+000  8.815000e+001
      vertex -4.603706e+000  2.000000e+000  9.365000e+001
      vertex  0.000000e+000  2.000000e+000  8.815000e+001
    endloop
  endfacet
  facet normal  0.000000e+000  1.000000e+000  -0.000000e+000
    outer loop
      vertex  0.000000e+000  2.000000e+000  8.815000e+001
      vertex -4.603706e+000  2.000000e+000  9.365000e+001
      vertex  0.000000e+000  2.000000e+000  9.365000e+001
    endloop
  endfacet
  facet normal  0.000000e+000  1.000000e+000  0.000000e+000
    outer loop
      vertex -4.000000e+001  2.000000e+000  8.150000e+000
      vertex -4.000000e+001  2.000000e+000  1.365000e+001
      vertex -3.710371e+001  2.000000e+000  8.150000e+000
    endloop
  endfacet
  facet normal  0.000000e+000  1.000000e+000  -0.000000e+000
    outer loop
      vertex -3.710371e+001  2.000000e+000  8.150000e+000
      vertex -4.000000e+001  2.000000e+000  1.365000e+001
      vertex -3.710371e+001  2.000000e+000  1.365000e+001
    endloop
  endfacet
  facet normal  0.000000e+000  1.000000e+000  0.000000e+000
    outer loop
      vertex -4.603706e+000  2.000000e+000  8.150000e+000
      vertex -4.603706e+000  2.000000e+000  1.365000e+001
      vertex  0.000000e+000  2.000000e+000  8.150000e+000
    endloop
  endfacet
  facet normal  0.000000e+000  1.000000e+000  -0.000000e+000
    outer loop
      vertex  0.000000e+000  2.000000e+000  8.150000e+000
      vertex -4.603706e+000  2.000000e+000  1.365000e+001
      vertex  0.000000e+000  2.000000e+000  1.365000e+001
    endloop
  endfacet
  facet normal  0.000000e+000  1.000000e+000  0.000000e+000
    outer loop
      vertex -4.000000e+001  2.000000e+000  2.815000e+001
      vertex -4.000000e+001  2.000000e+000  3.365000e+001
      vertex -3.710371e+001  2.000000e+000  2.815000e+001
    endloop
  endfacet
  facet normal  0.000000e+000  1.000000e+000  -0.000000e+000
    outer loop
      vertex -3.710371e+001  2.000000e+000  2.815000e+001
      vertex -4.000000e+001  2.000000e+000  3.365000e+001
      vertex -3.710371e+001  2.000000e+000  3.365000e+001
    endloop
  endfacet
  facet normal  0.000000e+000  1.000000e+000  0.000000e+000
    outer loop
      vertex -4.603706e+000  2.000000e+000  2.815000e+001
      vertex -4.603706e+000  2.000000e+000  3.365000e+001
      vertex  0.000000e+000  2.000000e+000  2.815000e+001
    endloop
  endfacet
  facet normal  0.000000e+000  1.000000e+000  -0.000000e+000
    outer loop
      vertex  0.000000e+000  2.000000e+000  2.815000e+001
      vertex -4.603706e+000  2.000000e+000  3.365000e+001
      vertex  0.000000e+000  2.000000e+000  3.365000e+001
    endloop
  endfacet
  facet normal  0.000000e+000  1.000000e+000  0.000000e+000
    outer loop
      vertex -4.000000e+001  2.000000e+000  4.815000e+001
      vertex -4.000000e+001  2.000000e+000  5.365000e+001
      vertex -3.710371e+001  2.000000e+000  4.815000e+001
    endloop
  endfacet
  facet normal  0.000000e+000  1.000000e+000  -0.000000e+000
    outer loop
      vertex -3.710371e+001  2.000000e+000  4.815000e+001
      vertex -4.000000e+001  2.000000e+000  5.365000e+001
      vertex -3.710371e+001  2.000000e+000  5.365000e+001
    endloop
  endfacet
  facet normal  0.000000e+000  1.000000e+000  0.000000e+000
    outer loop
      vertex -4.603706e+000  2.000000e+000  4.815000e+001
      vertex -4.603706e+000  2.000000e+000  5.365000e+001
      vertex  0.000000e+000  2.000000e+000  4.815000e+001
    endloop
  endfacet
  facet normal  0.000000e+000  1.000000e+000  -0.000000e+000
    outer loop
      vertex  0.000000e+000  2.000000e+000  4.815000e+001
      vertex -4.603706e+000  2.000000e+000  5.365000e+001
      vertex  0.000000e+000  2.000000e+000  5.365000e+001
    endloop
  endfacet
  facet normal  0.000000e+000  1.000000e+000  0.000000e+000
    outer loop
      vertex -4.000000e+001  2.000000e+000  6.815000e+001
      vertex -4.000000e+001  2.000000e+000  7.365000e+001
      vertex -3.710371e+001  2.000000e+000  6.815000e+001
    endloop
  endfacet
  facet normal  0.000000e+000  1.000000e+000  -0.000000e+000
    outer loop
      vertex -3.710371e+001  2.000000e+000  6.815000e+001
      vertex -4.000000e+001  2.000000e+000  7.365000e+001
      vertex -3.710371e+001  2.000000e+000  7.365000e+001
    endloop
  endfacet
  facet normal  0.000000e+000  1.000000e+000  0.000000e+000
    outer loop
      vertex -4.603706e+000  2.000000e+000  6.815000e+001
      vertex -4.603706e+000  2.000000e+000  7.365000e+001
      vertex  0.000000e+000  2.000000e+000  6.815000e+001
    endloop
  endfacet
  facet normal  0.000000e+000  1.000000e+000  -0.000000e+000
    outer loop
      vertex  0.000000e+000  2.000000e+000  6.815000e+001
      vertex -4.603706e+000  2.000000e+000  7.365000e+001
      vertex  0.000000e+000  2.000000e+000  7.365000e+001
    endloop
  endfacet
  facet normal  0.000000e+000  0.000000e+000 -1.000000e+000
    outer loop
      vertex  0.000000e+000  2.000000e+000  9.365000e+001
      vertex -4.603706e+000  2.000000e+000  9.365000e+001
      vertex  1.243450e-014  1.000000e+001  9.365000e+001
    endloop
  endfacet
  facet normal  -0.000000e+000  0.000000e+000 -1.000000e+000
    outer loop
      vertex  1.243450e-014  1.000000e+001  9.365000e+001
      vertex -4.603706e+000  2.000000e+000  9.365000e+001
      vertex -4.603706e+000  1.000000e+001  9.365000e+001
    endloop
  endfacet
  facet normal  0.000000e+000  0.000000e+000 -9.999999e-001
    outer loop
      vertex -3.710371e+001  2.000000e+000  9.365000e+001
      vertex -4.000000e+001  2.000000e+000  9.365000e+001
      vertex -3.710371e+001  1.000000e+001  9.365000e+001
    endloop
  endfacet
  facet normal  -0.000000e+000  0.000000e+000 -9.999999e-001
    outer loop
      vertex -3.710371e+001  1.000000e+001  9.365000e+001
      vertex -4.000000e+001  2.000000e+000  9.365000e+001
      vertex -4.000000e+001  1.000000e+001  9.365000e+001
    endloop
  endfacet
  facet normal  0.000000e+000  0.000000e+000 -9.999999e-001
    outer loop
      vertex -3.710371e+001  2.000000e+000  7.365000e+001
      vertex -4.000000e+001  2.000000e+000  7.365000e+001
      vertex -3.710371e+001  1.000000e+001  7.365000e+001
    endloop
  endfacet
  facet normal  -0.000000e+000  0.000000e+000 -9.999999e-001
    outer loop
      vertex -3.710371e+001  1.000000e+001  7.365000e+001
      vertex -4.000000e+001  2.000000e+000  7.365000e+001
      vertex -4.000000e+001  1.000000e+001  7.365000e+001
    endloop
  endfacet
  facet normal  0.000000e+000  0.000000e+000 -9.999999e-001
    outer loop
      vertex -3.710371e+001  2.000000e+000  5.365000e+001
      vertex -4.000000e+001  2.000000e+000  5.365000e+001
      vertex -3.710371e+001  1.000000e+001  5.365000e+001
    endloop
  endfacet
  facet normal  -0.000000e+000  0.000000e+000 -9.999999e-001
    outer loop
      vertex -3.710371e+001  1.000000e+001  5.365000e+001
      vertex -4.000000e+001  2.000000e+000  5.365000e+001
      vertex -4.000000e+001  1.000000e+001  5.365000e+001
    endloop
  endfacet
  facet normal  0.000000e+000  0.000000e+000 -9.999999e-001
    outer loop
      vertex -3.710371e+001  2.000000e+000  3.365000e+001
      vertex -4.000000e+001  2.000000e+000  3.365000e+001
      vertex -3.710371e+001  1.000000e+001  3.365000e+001
    endloop
  endfacet
  facet normal  -0.000000e+000  0.000000e+000 -9.999999e-001
    outer loop
      vertex -3.710371e+001  1.000000e+001  3.365000e+001
      vertex -4.000000e+001  2.000000e+000  3.365000e+001
      vertex -4.000000e+001  1.000000e+001  3.365000e+001
    endloop
  endfacet
  facet normal  0.000000e+000  0.000000e+000 -9.999999e-001
    outer loop
      vertex -3.710371e+001  2.000000e+000  1.365000e+001
      vertex -4.000000e+001  2.000000e+000  1.365000e+001
      vertex -3.710371e+001  1.000000e+001  1.365000e+001
    endloop
  endfacet
  facet normal  -0.000000e+000  0.000000e+000 -9.999999e-001
    outer loop
      vertex -3.710371e+001  1.000000e+001  1.365000e+001
      vertex -4.000000e+001  2.000000e+000  1.365000e+001
      vertex -4.000000e+001  1.000000e+001  1.365000e+001
    endloop
  endfacet
  facet normal  0.000000e+000  0.000000e+000  1.000000e+000
    outer loop
      vertex -4.603706e+000  2.000000e+000  2.815000e+001
      vertex  0.000000e+000  2.000000e+000  2.815000e+001
      vertex -4.603706e+000  1.000000e+001  2.815000e+001
    endloop
  endfacet
  facet normal  -0.000000e+000  0.000000e+000  1.000000e+000
    outer loop
      vertex -4.603706e+000  1.000000e+001  2.815000e+001
      vertex  0.000000e+000  2.000000e+000  2.815000e+001
      vertex -1.019629e-012  1.000000e+001  2.815000e+001
    endloop
  endfacet
  facet normal  0.000000e+000  0.000000e+000  1.000000e+000
    outer loop
      vertex -4.603706e+000  2.000000e+000  4.815000e+001
      vertex  0.000000e+000  2.000000e+000  4.815000e+001
      vertex -4.603706e+000  1.000000e+001  4.815000e+001
    endloop
  endfacet
  facet normal  -0.000000e+000  0.000000e+000  1.000000e+000
    outer loop
      vertex -4.603706e+000  1.000000e+001  4.815000e+001
      vertex  0.000000e+000  2.000000e+000  4.815000e+001
      vertex -1.019629e-012  1.000000e+001  4.815000e+001
    endloop
  endfacet
  facet normal  0.000000e+000  0.000000e+000  1.000000e+000
    outer loop
      vertex -4.603706e+000  2.000000e+000  6.815000e+001
      vertex  0.000000e+000  2.000000e+000  6.815000e+001
      vertex -4.603706e+000  1.000000e+001  6.815000e+001
    endloop
  endfacet
  facet normal  -0.000000e+000  0.000000e+000  1.000000e+000
    outer loop
      vertex -4.603706e+000  1.000000e+001  6.815000e+001
      vertex  0.000000e+000  2.000000e+000  6.815000e+001
      vertex -1.019629e-012  1.000000e+001  6.815000e+001
    endloop
  endfacet
  facet normal  0.000000e+000  0.000000e+000  1.000000e+000
    outer loop
      vertex -4.603706e+000  2.000000e+000  8.815000e+001
      vertex  0.000000e+000  2.000000e+000  8.815000e+001
      vertex -4.603706e+000  1.000000e+001  8.815000e+001
    endloop
  endfacet
  facet normal  -0.000000e+000  0.000000e+000  1.000000e+000
    outer loop
      vertex -4.603706e+000  1.000000e+001  8.815000e+001
      vertex  0.000000e+000  2.000000e+000  8.815000e+001
      vertex -1.019629e-012  1.000000e+001  8.815000e+001
    endloop
  endfacet
  facet normal  0.000000e+000  0.000000e+000  1.000000e+000
    outer loop
      vertex -4.603706e+000  2.000000e+000  8.150000e+000
      vertex  0.000000e+000  2.000000e+000  8.150000e+000
      vertex -4.603706e+000  1.000000e+001  8.150000e+000
    endloop
  endfacet
  facet normal  -0.000000e+000  0.000000e+000  1.000000e+000
    outer loop
      vertex -4.603706e+000  1.000000e+001  8.150000e+000
      vertex  0.000000e+000  2.000000e+000  8.150000e+000
      vertex -1.019629e-012  1.000000e+001  8.150000e+000
    endloop
  endfacet
  facet normal  0.000000e+000  0.000000e+000 -1.000000e+000
    outer loop
      vertex  0.000000e+000  2.000000e+000  1.365000e+001
      vertex -4.603706e+000  2.000000e+000  1.365000e+001
      vertex  1.243450e-014  1.000000e+001  1.365000e+001
    endloop
  endfacet
  facet normal  -0.000000e+000  0.000000e+000 -1.000000e+000
    outer loop
      vertex  1.243450e-014  1.000000e+001  1.365000e+001
      vertex -4.603706e+000  2.000000e+000  1.365000e+001
      vertex -4.603706e+000  1.000000e+001  1.365000e+001
    endloop
  endfacet
  facet normal  0.000000e+000  0.000000e+000 -1.000000e+000
    outer loop
      vertex  0.000000e+000  2.000000e+000  7.365000e+001
      vertex -4.603706e+000  2.000000e+000  7.365000e+001
      vertex  1.243450e-014  1.000000e+001  7.365000e+001
    endloop
  endfacet
  facet normal  -0.000000e+000  0.000000e+000 -1.000000e+000
    outer loop
      vertex  1.243450e-014  1.000000e+001  7.365000e+001
      vertex -4.603706e+000  2.000000e+000  7.365000e+001
      vertex -4.603706e+000  1.000000e+001  7.365000e+001
    endloop
  endfacet
  facet normal  0.000000e+000  0.000000e+000 -1.000000e+000
    outer loop
      vertex  0.000000e+000  2.000000e+000  5.365000e+001
      vertex -4.603706e+000  2.000000e+000  5.365000e+001
      vertex  1.243450e-014  1.000000e+001  5.365000e+001
    endloop
  endfacet
  facet normal  -0.000000e+000  0.000000e+000 -1.000000e+000
    outer loop
      vertex  1.243450e-014  1.000000e+001  5.365000e+001
      vertex -4.603706e+000  2.000000e+000  5.365000e+001
      vertex -4.603706e+000  1.000000e+001  5.365000e+001
    endloop
  endfacet
  facet normal  0.000000e+000  0.000000e+000 -1.000000e+000
    outer loop
      vertex  0.000000e+000  2.000000e+000  3.365000e+001
      vertex -4.603706e+000  2.000000e+000  3.365000e+001
      vertex  1.243450e-014  1.000000e+001  3.365000e+001
    endloop
  endfacet
  facet normal  -0.000000e+000  0.000000e+000 -1.000000e+000
    outer loop
      vertex  1.243450e-014  1.000000e+001  3.365000e+001
      vertex -4.603706e+000  2.000000e+000  3.365000e+001
      vertex -4.603706e+000  1.000000e+001  3.365000e+001
    endloop
  endfacet
  facet normal  0.000000e+000  0.000000e+000  9.999999e-001
    outer loop
      vertex -4.000000e+001  2.000000e+000  8.815000e+001
      vertex -3.710371e+001  2.000000e+000  8.815000e+001
      vertex -4.000000e+001  1.000000e+001  8.815000e+001
    endloop
  endfacet
  facet normal  -0.000000e+000  0.000000e+000  9.999999e-001
    outer loop
      vertex -4.000000e+001  1.000000e+001  8.815000e+001
      vertex -3.710371e+001  2.000000e+000  8.815000e+001
      vertex -3.710371e+001  1.000000e+001  8.815000e+001
    endloop
  endfacet
  facet normal  0.000000e+000  0.000000e+000  9.999999e-001
    outer loop
      vertex -4.000000e+001  2.000000e+000  8.150000e+000
      vertex -3.710371e+001  2.000000e+000  8.150000e+000
      vertex -4.000000e+001  1.000000e+001  8.150000e+000
    endloop
  endfacet
  facet normal  -0.000000e+000  0.000000e+000  9.999999e-001
    outer loop
      vertex -4.000000e+001  1.000000e+001  8.150000e+000
      vertex -3.710371e+001  2.000000e+000  8.150000e+000
      vertex -3.710371e+001  1.000000e+001  8.150000e+000
    endloop
  endfacet
  facet normal  0.000000e+000  0.000000e+000  9.999999e-001
    outer loop
      vertex -4.000000e+001  2.000000e+000  2.815000e+001
      vertex -3.710371e+001  2.000000e+000  2.815000e+001
      vertex -4.000000e+001  1.000000e+001  2.815000e+001
    endloop
  endfacet
  facet normal  -0.000000e+000  0.000000e+000  9.999999e-001
    outer loop
      vertex -4.000000e+001  1.000000e+001  2.815000e+001
      vertex -3.710371e+001  2.000000e+000  2.815000e+001
      vertex -3.710371e+001  1.000000e+001  2.815000e+001
    endloop
  endfacet
  facet normal  0.000000e+000  0.000000e+000  9.999999e-001
    outer loop
      vertex -4.000000e+001  2.000000e+000  4.815000e+001
      vertex -3.710371e+001  2.000000e+000  4.815000e+001
      vertex -4.000000e+001  1.000000e+001  4.815000e+001
    endloop
  endfacet
  facet normal  -0.000000e+000  0.000000e+000  9.999999e-001
    outer loop
      vertex -4.000000e+001  1.000000e+001  4.815000e+001
      vertex -3.710371e+001  2.000000e+000  4.815000e+001
      vertex -3.710371e+001  1.000000e+001  4.815000e+001
    endloop
  endfacet
  facet normal  0.000000e+000  0.000000e+000  9.999999e-001
    outer loop
      vertex -4.000000e+001  2.000000e+000  6.815000e+001
      vertex -3.710371e+001  2.000000e+000  6.815000e+001
      vertex -4.000000e+001  1.000000e+001  6.815000e+001
    endloop
  endfacet
  facet normal  -0.000000e+000  0.000000e+000  9.999999e-001
    outer loop
      vertex -4.000000e+001  1.000000e+001  6.815000e+001
      vertex -3.710371e+001  2.000000e+000  6.815000e+001
      vertex -3.710371e+001  1.000000e+001  6.815000e+001
    endloop
  endfacet
  facet normal  0.000000e+000  0.000000e+000 -1.000000e+000
    outer loop
      vertex -3.710371e+001  0.000000e+000  1.160000e+002
      vertex -3.710371e+001  2.000000e+000  1.160000e+002
      vertex -4.603706e+000  0.000000e+000  1.160000e+002
    endloop
  endfacet
  facet normal  0.000000e+000  0.000000e+000 -1.000000e+000
    outer loop
      vertex -4.603706e+000  1.000000e+001  1.160000e+002
      vertex -4.603706e+000  2.000000e+000  1.160000e+002
      vertex -3.710371e+001  1.000000e+001  1.160000e+002
    endloop
  endfacet
  facet normal  0.000000e+000  0.000000e+000 -1.000000e+000
    outer loop
      vertex -3.710371e+001  1.000000e+001  1.160000e+002
      vertex -4.603706e+000  2.000000e+000  1.160000e+002
      vertex -4.603706e+000  0.000000e+000  1.160000e+002
    endloop
  endfacet
  facet normal  0.000000e+000  0.000000e+000 -1.000000e+000
    outer loop
      vertex -3.710371e+001  1.000000e+001  1.160000e+002
      vertex -4.603706e+000  0.000000e+000  1.160000e+002
      vertex -3.710371e+001  2.000000e+000  1.160000e+002
    endloop
  endfacet
  facet normal -1.000000e+000  0.000000e+000  0.000000e+000
    outer loop
      vertex -4.603706e+000  0.000000e+000  1.058000e+002
      vertex -4.603706e+000  0.000000e+000  1.160000e+002
      vertex -4.603706e+000  2.000000e+000  1.160000e+002
    endloop
  endfacet
  facet normal -1.000000e+000  0.000000e+000  -0.000000e+000
    outer loop
      vertex -4.603706e+000  0.000000e+000  1.058000e+002
      vertex -4.603706e+000  2.000000e+000  1.160000e+002
      vertex -4.603706e+000  2.000000e+000  1.136500e+002
    endloop
  endfacet
  facet normal -1.000000e+000  0.000000e+000  -0.000000e+000
    outer loop
      vertex -4.603706e+000  0.000000e+000  1.058000e+002
      vertex -4.603706e+000  2.000000e+000  1.136500e+002
      vertex -4.603706e+000  2.000000e+000  1.081500e+002
    endloop
  endfacet
  facet normal -1.000000e+000  0.000000e+000  -0.000000e+000
    outer loop
      vertex -4.603706e+000  0.000000e+000  1.058000e+002
      vertex -4.603706e+000  2.000000e+000  1.081500e+002
      vertex -4.603706e+000  2.000000e+000  1.058000e+002
    endloop
  endfacet
  facet normal -1.000000e+000  0.000000e+000  0.000000e+000
    outer loop
      vertex -4.603706e+000  1.000000e+001  1.160000e+002
      vertex -4.603706e+000  1.000000e+001  1.136500e+002
      vertex -4.603706e+000  2.000000e+000  1.160000e+002
    endloop
  endfacet
  facet normal -1.000000e+000  0.000000e+000  0.000000e+000
    outer loop
      vertex -4.603706e+000  2.000000e+000  1.160000e+002
      vertex -4.603706e+000  1.000000e+001  1.136500e+002
      vertex -4.603706e+000  2.000000e+000  1.136500e+002
    endloop
  endfacet
  facet normal -1.000000e+000  0.000000e+000  0.000000e+000
    outer loop
      vertex -4.603706e+000  1.000000e+001  1.081500e+002
      vertex -4.603706e+000  1.000000e+001  1.058000e+002
      vertex -4.603706e+000  2.000000e+000  1.081500e+002
    endloop
  endfacet
  facet normal -1.000000e+000  0.000000e+000  0.000000e+000
    outer loop
      vertex -4.603706e+000  2.000000e+000  1.081500e+002
      vertex -4.603706e+000  1.000000e+001  1.058000e+002
      vertex -4.603706e+000  2.000000e+000  1.058000e+002
    endloop
  endfacet
  facet normal  0.000000e+000  0.000000e+000  1.000000e+000
    outer loop
      vertex -4.603706e+000  0.000000e+000  1.058000e+002
      vertex -4.603706e+000  2.000000e+000  1.058000e+002
      vertex -3.710371e+001  0.000000e+000  1.058000e+002
    endloop
  endfacet
  facet normal  0.000000e+000  0.000000e+000  1.000000e+000
    outer loop
      vertex -3.710371e+001  1.000000e+001  1.058000e+002
      vertex -3.710371e+001  2.000000e+000  1.058000e+002
      vertex -4.603706e+000  1.000000e+001  1.058000e+002
    endloop
  endfacet
  facet normal  0.000000e+000  0.000000e+000  1.000000e+000
    outer loop
      vertex -4.603706e+000  1.000000e+001  1.058000e+002
      vertex -3.710371e+001  2.000000e+000  1.058000e+002
      vertex -3.710371e+001  0.000000e+000  1.058000e+002
    endloop
  endfacet
  facet normal  0.000000e+000  0.000000e+000  1.000000e+000
    outer loop
      vertex -4.603706e+000  1.000000e+001  1.058000e+002
      vertex -3.710371e+001  0.000000e+000  1.058000e+002
      vertex -4.603706e+000  2.000000e+000  1.058000e+002
    endloop
  endfacet
  facet normal  1.000000e+000  0.000000e+000  -0.000000e+000
    outer loop
      vertex -3.710371e+001  0.000000e+000  1.058000e+002
      vertex -3.710371e+001  2.000000e+000  1.058000e+002
      vertex -3.710371e+001  2.000000e+000  1.081500e+002
    endloop
  endfacet
  facet normal  1.000000e+000  0.000000e+000  -0.000000e+000
    outer loop
      vertex -3.710371e+001  0.000000e+000  1.058000e+002
      vertex -3.710371e+001  2.000000e+000  1.081500e+002
      vertex -3.710371e+001  2.000000e+000  1.136500e+002
    endloop
  endfacet
  facet normal  1.000000e+000  0.000000e+000  -0.000000e+000
    outer loop
      vertex -3.710371e+001  0.000000e+000  1.058000e+002
      vertex -3.710371e+001  2.000000e+000  1.136500e+002
      vertex -3.710371e+001  2.000000e+000  1.160000e+002
    endloop
  endfacet
  facet normal  1.000000e+000  0.000000e+000  0.000000e+000
    outer loop
      vertex -3.710371e+001  0.000000e+000  1.058000e+002
      vertex -3.710371e+001  2.000000e+000  1.160000e+002
      vertex -3.710371e+001  0.000000e+000  1.160000e+002
    endloop
  endfacet
  facet normal  1.000000e+000  -0.000000e+000  0.000000e+000
    outer loop
      vertex -3.710371e+001  1.000000e+001  1.160000e+002
      vertex -3.710371e+001  2.000000e+000  1.160000e+002
      vertex -3.710371e+001  1.000000e+001  1.136500e+002
    endloop
  endfacet
  facet normal  1.000000e+000  0.000000e+000  0.000000e+000
    outer loop
      vertex -3.710371e+001  1.000000e+001  1.136500e+002
      vertex -3.710371e+001  2.000000e+000  1.160000e+002
      vertex -3.710371e+001  2.000000e+000  1.136500e+002
    endloop
  endfacet
  facet normal  1.000000e+000  -0.000000e+000  0.000000e+000
    outer loop
      vertex -3.710371e+001  1.000000e+001  1.081500e+002
      vertex -3.710371e+001  2.000000e+000  1.081500e+002
      vertex -3.710371e+001  1.000000e+001  1.058000e+002
    endloop
  endfacet
  facet normal  1.000000e+000  0.000000e+000  0.000000e+000
    outer loop
      vertex -3.710371e+001  1.000000e+001  1.058000e+002
      vertex -3.710371e+001  2.000000e+000  1.081500e+002
      vertex -3.710371e+001  2.000000e+000  1.058000e+002
    endloop
  endfacet
  facet normal  0.000000e+000  1.000000e+000  0.000000e+000
    outer loop
      vertex -4.000000e+001  2.000000e+000  1.081500e+002
      vertex -4.000000e+001  2.000000e+000  1.136500e+002
      vertex -3.710371e+001  2.000000e+000  1.081500e+002
    endloop
  endfacet
  facet normal  0.000000e+000  1.000000e+000  -0.000000e+000
    outer loop
      vertex -3.710371e+001  2.000000e+000  1.081500e+002
      vertex -4.000000e+001  2.000000e+000  1.136500e+002
      vertex -3.710371e+001  2.000000e+000  1.136500e+002
    endloop
  endfacet
  facet normal  0.000000e+000  1.000000e+000  0.000000e+000
    outer loop
      vertex -4.603706e+000  2.000000e+000  1.081500e+002
      vertex -4.603706e+000  2.000000e+000  1.136500e+002
      vertex  0.000000e+000  2.000000e+000  1.081500e+002
    endloop
  endfacet
  facet normal  0.000000e+000  1.000000e+000  -0.000000e+000
    outer loop
      vertex  0.000000e+000  2.000000e+000  1.081500e+002
      vertex -4.603706e+000  2.000000e+000  1.136500e+002
      vertex  0.000000e+000  2.000000e+000  1.136500e+002
    endloop
  endfacet
  facet normal  0.000000e+000  0.000000e+000  9.999999e-001
    outer loop
      vertex -4.000000e+001  2.000000e+000  1.081500e+002
      vertex -3.710371e+001  2.000000e+000  1.081500e+002
      vertex -4.000000e+001  1.000000e+001  1.081500e+002
    endloop
  endfacet
  facet normal  -0.000000e+000  0.000000e+000  9.999999e-001
    outer loop
      vertex -4.000000e+001  1.000000e+001  1.081500e+002
      vertex -3.710371e+001  2.000000e+000  1.081500e+002
      vertex -3.710371e+001  1.000000e+001  1.081500e+002
    endloop
  endfacet
  facet normal  0.000000e+000  0.000000e+000  1.000000e+000
    outer loop
      vertex -4.603706e+000  2.000000e+000  1.081500e+002
      vertex  0.000000e+000  2.000000e+000  1.081500e+002
      vertex -4.603706e+000  1.000000e+001  1.081500e+002
    endloop
  endfacet
  facet normal  -0.000000e+000  0.000000e+000  1.000000e+000
    outer loop
      vertex -4.603706e+000  1.000000e+001  1.081500e+002
      vertex  0.000000e+000  2.000000e+000  1.081500e+002
      vertex -1.019629e-012  1.000000e+001  1.081500e+002
    endloop
  endfacet
  facet normal  0.000000e+000  0.000000e+000 -1.000000e+000
    outer loop
      vertex  0.000000e+000  2.000000e+000  1.136500e+002
      vertex -4.603706e+000  2.000000e+000  1.136500e+002
      vertex  1.243450e-014  1.000000e+001  1.136500e+002
    endloop
  endfacet
  facet normal  -0.000000e+000  0.000000e+000 -1.000000e+000
    outer loop
      vertex  1.243450e-014  1.000000e+001  1.136500e+002
      vertex -4.603706e+000  2.000000e+000  1.136500e+002
      vertex -4.603706e+000  1.000000e+001  1.136500e+002
    endloop
  endfacet
  facet normal  0.000000e+000  0.000000e+000 -9.999999e-001
    outer loop
      vertex -3.710371e+001  2.000000e+000  1.136500e+002
      vertex -4.000000e+001  2.000000e+000  1.136500e+002
      vertex -3.710371e+001  1.000000e+001  1.136500e+002
    endloop
  endfacet
  facet normal  -0.000000e+000  0.000000e+000 -9.999999e-001
    outer loop
      vertex -3.710371e+001  1.000000e+001  1.136500e+002
      vertex -4.000000e+001  2.000000e+000  1.136500e+002
      vertex -4.000000e+001  1.000000e+001  1.136500e+002
    endloop
  endfacet
  facet normal  1.000000e+000  0.000000e+000  1.251078e-013
    outer loop
      vertex  0.000000e+000  0.000000e+000  0.000000e+000
      vertex  0.000000e+000  1.000000e+001  0.000000e+000
      vertex -1.019629e-012  1.000000e+001  8.150000e+000
    endloop
  endfacet
  facet normal  1.000000e+000  1.274536e-013 -3.127696e-014
    outer loop
      vertex  0.000000e+000  0.000000e+000  0.000000e+000
      vertex -1.019629e-012  1.000000e+001  8.150000e+000
      vertex  0.000000e+000  2.000000e+000  8.150000e+000
    endloop
  endfacet
  facet normal  1.000000e+000  0.000000e+000  -0.000000e+000
    outer loop
      vertex  0.000000e+000  0.000000e+000  0.000000e+000
      vertex  0.000000e+000  2.000000e+000  8.150000e+000
      vertex  0.000000e+000  2.000000e+000  1.365000e+001
    endloop
  endfacet
  facet normal  1.000000e+000  0.000000e+000  -0.000000e+000
    outer loop
      vertex  0.000000e+000  0.000000e+000  0.000000e+000
      vertex  0.000000e+000  2.000000e+000  1.365000e+001
      vertex  0.000000e+000  2.000000e+000  2.815000e+001
    endloop
  endfacet
  facet normal  9.999999e-001  0.000000e+000  -0.000000e+000
    outer loop
      vertex  0.000000e+000  0.000000e+000  0.000000e+000
      vertex  0.000000e+000  2.000000e+000  2.815000e+001
      vertex  0.000000e+000  2.000000e+000  3.365000e+001
    endloop
  endfacet
  facet normal  1.000000e+000  0.000000e+000  -0.000000e+000
    outer loop
      vertex  0.000000e+000  0.000000e+000  0.000000e+000
      vertex  0.000000e+000  2.000000e+000  3.365000e+001
      vertex  0.000000e+000  2.000000e+000  4.815000e+001
    endloop
  endfacet
  facet normal  1.000000e+000  0.000000e+000  -0.000000e+000
    outer loop
      vertex  0.000000e+000  0.000000e+000  0.000000e+000
      vertex  0.000000e+000  2.000000e+000  4.815000e+001
      vertex  0.000000e+000  2.000000e+000  5.365000e+001
    endloop
  endfacet
  facet normal  1.000000e+000  0.000000e+000  -0.000000e+000
    outer loop
      vertex  0.000000e+000  0.000000e+000  0.000000e+000
      vertex  0.000000e+000  2.000000e+000  5.365000e+001
      vertex  0.000000e+000  2.000000e+000  6.815000e+001
    endloop
  endfacet
  facet normal  1.000000e+000  0.000000e+000  -0.000000e+000
    outer loop
      vertex  0.000000e+000  0.000000e+000  0.000000e+000
      vertex  0.000000e+000  2.000000e+000  6.815000e+001
      vertex  0.000000e+000  2.000000e+000  7.365000e+001
    endloop
  endfacet
  facet normal  1.000000e+000  0.000000e+000  -0.000000e+000
    outer loop
      vertex  0.000000e+000  0.000000e+000  0.000000e+000
      vertex  0.000000e+000  2.000000e+000  7.365000e+001
      vertex  0.000000e+000  2.000000e+000  8.815000e+001
    endloop
  endfacet
  facet normal  1.000000e+000  0.000000e+000  -0.000000e+000
    outer loop
      vertex  0.000000e+000  0.000000e+000  0.000000e+000
      vertex  0.000000e+000  2.000000e+000  8.815000e+001
      vertex  0.000000e+000  2.000000e+000  9.365000e+001
    endloop
  endfacet
  facet normal  1.000000e+000  0.000000e+000  -0.000000e+000
    outer loop
      vertex  0.000000e+000  0.000000e+000  0.000000e+000
      vertex  0.000000e+000  2.000000e+000  9.365000e+001
      vertex  0.000000e+000  2.000000e+000  1.081500e+002
    endloop
  endfacet
  facet normal  1.000000e+000  0.000000e+000  -0.000000e+000
    outer loop
      vertex  0.000000e+000  0.000000e+000  0.000000e+000
      vertex  0.000000e+000  2.000000e+000  1.081500e+002
      vertex  0.000000e+000  2.000000e+000  1.136500e+002
    endloop
  endfacet
  facet normal  1.000000e+000 -2.018830e-014  3.552714e-016
    outer loop
      vertex  0.000000e+000  0.000000e+000  0.000000e+000
      vertex  0.000000e+000  2.000000e+000  1.136500e+002
      vertex -4.263256e-014  0.000000e+000  1.200000e+002
    endloop
  endfacet
  facet normal  1.000000e+000 -1.554312e-015  7.117678e-014
    outer loop
      vertex  1.243450e-014  1.000000e+001  9.365000e+001
      vertex -1.019629e-012  1.000000e+001  1.081500e+002
      vertex  0.000000e+000  2.000000e+000  9.365000e+001
    endloop
  endfacet
  facet normal  1.000000e+000  1.274536e-013  -0.000000e+000
    outer loop
      vertex  0.000000e+000  2.000000e+000  9.365000e+001
      vertex -1.019629e-012  1.000000e+001  1.081500e+002
      vertex  0.000000e+000  2.000000e+000  1.081500e+002
    endloop
  endfacet
  facet normal  1.000000e+000 -1.554312e-015  7.117678e-014
    outer loop
      vertex  1.243450e-014  1.000000e+001  7.365000e+001
      vertex -1.019629e-012  1.000000e+001  8.815000e+001
      vertex  0.000000e+000  2.000000e+000  7.365000e+001
    endloop
  endfacet
  facet normal  1.000000e+000  1.274536e-013  -0.000000e+000
    outer loop
      vertex  0.000000e+000  2.000000e+000  7.365000e+001
      vertex -1.019629e-012  1.000000e+001  8.815000e+001
      vertex  0.000000e+000  2.000000e+000  8.815000e+001
    endloop
  endfacet
  facet normal  1.000000e+000 -1.554312e-015  7.117678e-014
    outer loop
      vertex  1.243450e-014  1.000000e+001  5.365000e+001
      vertex -1.019629e-012  1.000000e+001  6.815000e+001
      vertex  0.000000e+000  2.000000e+000  5.365000e+001
    endloop
  endfacet
  facet normal  1.000000e+000  1.274536e-013  -0.000000e+000
    outer loop
      vertex  0.000000e+000  2.000000e+000  5.365000e+001
      vertex -1.019629e-012  1.000000e+001  6.815000e+001
      vertex  0.000000e+000  2.000000e+000  6.815000e+001
    endloop
  endfacet
  facet normal  1.000000e+000 -1.554312e-015  7.117678e-014
    outer loop
      vertex  1.243450e-014  1.000000e+001  3.365000e+001
      vertex -1.019629e-012  1.000000e+001  4.815000e+001
      vertex  0.000000e+000  2.000000e+000  3.365000e+001
    endloop
  endfacet
  facet normal  1.000000e+000  1.274536e-013  -0.000000e+000
    outer loop
      vertex  0.000000e+000  2.000000e+000  3.365000e+001
      vertex -1.019629e-012  1.000000e+001  4.815000e+001
      vertex  0.000000e+000  2.000000e+000  4.815000e+001
    endloop
  endfacet
  facet normal  1.000000e+000 -1.554312e-015  7.117678e-014
    outer loop
      vertex  1.243450e-014  1.000000e+001  1.365000e+001
      vertex -1.019629e-012  1.000000e+001  2.815000e+001
      vertex  0.000000e+000  2.000000e+000  1.365000e+001
    endloop
  endfacet
  facet normal  1.000000e+000  1.274536e-013  -0.000000e+000
    outer loop
      vertex  0.000000e+000  2.000000e+000  1.365000e+001
      vertex -1.019629e-012  1.000000e+001  2.815000e+001
      vertex  0.000000e+000  2.000000e+000  2.815000e+001
    endloop
  endfacet
  facet normal  1.000000e+000  -0.000000e+000  8.671980e-015
    outer loop
      vertex -4.263256e-014  1.000000e+001  1.200000e+002
      vertex -4.263256e-014  0.000000e+000  1.200000e+002
      vertex  1.243450e-014  1.000000e+001  1.136500e+002
    endloop
  endfacet
  facet normal  1.000000e+000 -1.554312e-015  6.224244e-015
    outer loop
      vertex  1.243450e-014  1.000000e+001  1.136500e+002
      vertex -4.263256e-014  0.000000e+000  1.200000e+002
      vertex  0.000000e+000  2.000000e+000  1.136500e+002
    endloop
  endfacet
  facet normal -1.000000e+000  -0.000000e+000  -0.000000e+000
    outer loop
      vertex -4.000000e+001  0.000000e+000  1.200000e+002
      vertex -4.000000e+001  1.000000e+001  1.200000e+002
      vertex -4.000000e+001  1.000000e+001  1.136500e+002
    endloop
  endfacet
  facet normal -1.000000e+000  0.000000e+000  0.000000e+000
    outer loop
      vertex -4.000000e+001  0.000000e+000  1.200000e+002
      vertex -4.000000e+001  1.000000e+001  1.136500e+002
      vertex -4.000000e+001  2.000000e+000  1.136500e+002
    endloop
  endfacet
  facet normal -1.000000e+000  -0.000000e+000  -0.000000e+000
    outer loop
      vertex -4.000000e+001  0.000000e+000  1.200000e+002
      vertex -4.000000e+001  2.000000e+000  1.136500e+002
      vertex -4.000000e+001  2.000000e+000  1.081500e+002
    endloop
  endfacet
  facet normal -1.000000e+000  -0.000000e+000  -0.000000e+000
    outer loop
      vertex -4.000000e+001  0.000000e+000  1.200000e+002
      vertex -4.000000e+001  2.000000e+000  1.081500e+002
      vertex -4.000000e+001  2.000000e+000  9.365000e+001
    endloop
  endfacet
  facet normal -1.000000e+000  -0.000000e+000  -0.000000e+000
    outer loop
      vertex -4.000000e+001  0.000000e+000  1.200000e+002
      vertex -4.000000e+001  2.000000e+000  9.365000e+001
      vertex -4.000000e+001  2.000000e+000  8.815000e+001
    endloop
  endfacet
  facet normal -1.000000e+000  -0.000000e+000  -0.000000e+000
    outer loop
      vertex -4.000000e+001  0.000000e+000  1.200000e+002
      vertex -4.000000e+001  2.000000e+000  8.815000e+001
      vertex -4.000000e+001  2.000000e+000  7.365000e+001
    endloop
  endfacet
  facet normal -1.000000e+000  -0.000000e+000  -0.000000e+000
    outer loop
      vertex -4.000000e+001  0.000000e+000  1.200000e+002
      vertex -4.000000e+001  2.000000e+000  7.365000e+001
      vertex -4.000000e+001  2.000000e+000  6.815000e+001
    endloop
  endfacet
  facet normal -1.000000e+000  -0.000000e+000  -0.000000e+000
    outer loop
      vertex -4.000000e+001  0.000000e+000  1.200000e+002
      vertex -4.000000e+001  2.000000e+000  6.815000e+001
      vertex -4.000000e+001  2.000000e+000  5.365000e+001
    endloop
  endfacet
  facet normal -1.000000e+000  -0.000000e+000  -0.000000e+000
    outer loop
      vertex -4.000000e+001  0.000000e+000  1.200000e+002
      vertex -4.000000e+001  2.000000e+000  5.365000e+001
      vertex -4.000000e+001  2.000000e+000  4.815000e+001
    endloop
  endfacet
  facet normal -1.000000e+000  -0.000000e+000  -0.000000e+000
    outer loop
      vertex -4.000000e+001  0.000000e+000  1.200000e+002
      vertex -4.000000e+001  2.000000e+000  4.815000e+001
      vertex -4.000000e+001  2.000000e+000  3.365000e+001
    endloop
  endfacet
  facet normal -9.999999e-001  -0.000000e+000  -0.000000e+000
    outer loop
      vertex -4.000000e+001  0.000000e+000  1.200000e+002
      vertex -4.000000e+001  2.000000e+000  3.365000e+001
      vertex -4.000000e+001  2.000000e+000  2.815000e+001
    endloop
  endfacet
  facet normal -1.000000e+000  -0.000000e+000  -0.000000e+000
    outer loop
      vertex -4.000000e+001  0.000000e+000  1.200000e+002
      vertex -4.000000e+001  2.000000e+000  2.815000e+001
      vertex -4.000000e+001  2.000000e+000  1.365000e+001
    endloop
  endfacet
  facet normal -1.000000e+000  -0.000000e+000  -0.000000e+000
    outer loop
      vertex -4.000000e+001  0.000000e+000  1.200000e+002
      vertex -4.000000e+001  2.000000e+000  1.365000e+001
      vertex -4.000000e+001  2.000000e+000  8.150000e+000
    endloop
  endfacet
  facet normal -1.000000e+000  -0.000000e+000  0.000000e+000
    outer loop
      vertex -4.000000e+001  0.000000e+000  1.200000e+002
      vertex -4.000000e+001  2.000000e+000  8.150000e+000
      vertex -4.000000e+001  0.000000e+000  0.000000e+000
    endloop
  endfacet
  facet normal -1.000000e+000  0.000000e+000  0.000000e+000
    outer loop
      vertex -4.000000e+001  1.000000e+001  2.815000e+001
      vertex -4.000000e+001  1.000000e+001  1.365000e+001
      vertex -4.000000e+001  2.000000e+000  2.815000e+001
    endloop
  endfacet
  facet normal -1.000000e+000  0.000000e+000  0.000000e+000
    outer loop
      vertex -4.000000e+001  2.000000e+000  2.815000e+001
      vertex -4.000000e+001  1.000000e+001  1.365000e+001
      vertex -4.000000e+001  2.000000e+000  1.365000e+001
    endloop
  endfacet
  facet normal -1.000000e+000  0.000000e+000  0.000000e+000
    outer loop
      vertex -4.000000e+001  1.000000e+001  4.815000e+001
      vertex -4.000000e+001  1.000000e+001  3.365000e+001
      vertex -4.000000e+001  2.000000e+000  4.815000e+001
    endloop
  endfacet
  facet normal -1.000000e+000  0.000000e+000  0.000000e+000
    outer loop
      vertex -4.000000e+001  2.000000e+000  4.815000e+001
      vertex -4.000000e+001  1.000000e+001  3.365000e+001
      vertex -4.000000e+001  2.000000e+000  3.365000e+001
    endloop
  endfacet
  facet normal -1.000000e+000  0.000000e+000  0.000000e+000
    outer loop
      vertex -4.000000e+001  1.000000e+001  6.815000e+001
      vertex -4.000000e+001  1.000000e+001  5.365000e+001
      vertex -4.000000e+001  2.000000e+000  6.815000e+001
    endloop
  endfacet
  facet normal -1.000000e+000  0.000000e+000  0.000000e+000
    outer loop
      vertex -4.000000e+001  2.000000e+000  6.815000e+001
      vertex -4.000000e+001  1.000000e+001  5.365000e+001
      vertex -4.000000e+001  2.000000e+000  5.365000e+001
    endloop
  endfacet
  facet normal -1.000000e+000  0.000000e+000  0.000000e+000
    outer loop
      vertex -4.000000e+001  1.000000e+001  8.815000e+001
      vertex -4.000000e+001  1.000000e+001  7.365000e+001
      vertex -4.000000e+001  2.000000e+000  8.815000e+001
    endloop
  endfacet
  facet normal -1.000000e+000  0.000000e+000  0.000000e+000
    outer loop
      vertex -4.000000e+001  2.000000e+000  8.815000e+001
      vertex -4.000000e+001  1.000000e+001  7.365000e+001
      vertex -4.000000e+001  2.000000e+000  7.365000e+001
    endloop
  endfacet
  facet normal -1.000000e+000  0.000000e+000  0.000000e+000
    outer loop
      vertex -4.000000e+001  1.000000e+001  1.081500e+002
      vertex -4.000000e+001  1.000000e+001  9.365000e+001
      vertex -4.000000e+001  2.000000e+000  1.081500e+002
    endloop
  endfacet
  facet normal -1.000000e+000  0.000000e+000  0.000000e+000
    outer loop
      vertex -4.000000e+001  2.000000e+000  1.081500e+002
      vertex -4.000000e+001  1.000000e+001  9.365000e+001
      vertex -4.000000e+001  2.000000e+000  9.365000e+001
    endloop
  endfacet
  facet normal -1.000000e+000  0.000000e+000  0.000000e+000
    outer loop
      vertex -4.000000e+001  1.000000e+001  0.000000e+000
      vertex -4.000000e+001  0.000000e+000  0.000000e+000
      vertex -4.000000e+001  1.000000e+001  8.150000e+000
    endloop
  endfacet
  facet normal -1.000000e+000  -0.000000e+000  0.000000e+000
    outer loop
      vertex -4.000000e+001  1.000000e+001  8.150000e+000
      vertex -4.000000e+001  0.000000e+000  0.000000e+000
      vertex -4.000000e+001  2.000000e+000  8.150000e+000
    endloop
  endfacet
  facet normal  0.000000e+000  1.000000e+000  0.000000e+000
    outer loop
      vertex -3.710371e+001  1.000000e+001  1.136500e+002
      vertex -4.000000e+001  1.000000e+001  1.136500e+002
      vertex -3.710371e+001  1.000000e+001  1.160000e+002
    endloop
  endfacet
  facet normal  0.000000e+000  1.000000e+000  0.000000e+000
    outer loop
      vertex -3.710371e+001  1.000000e+001  1.160000e+002
      vertex -4.000000e+001  1.000000e+001  1.136500e+002
      vertex -4.000000e+001  1.000000e+001  1.200000e+002
    endloop
  endfacet
  facet normal  0.000000e+000  1.000000e+000  0.000000e+000
    outer loop
      vertex -3.710371e+001  1.000000e+001  1.160000e+002
      vertex -4.000000e+001  1.000000e+001  1.200000e+002
      vertex -4.603706e+000  1.000000e+001  1.160000e+002
    endloop
  endfacet
  facet normal  0.000000e+000  1.000000e+000  -0.000000e+000
    outer loop
      vertex -4.603706e+000  1.000000e+001  1.160000e+002
      vertex -4.000000e+001  1.000000e+001  1.200000e+002
      vertex -4.263256e-014  1.000000e+001  1.200000e+002
    endloop
  endfacet
  facet normal  0.000000e+000  9.999999e-001  0.000000e+000
    outer loop
      vertex -4.603706e+000  1.000000e+001  1.160000e+002
      vertex -4.263256e-014  1.000000e+001  1.200000e+002
      vertex -4.603706e+000  1.000000e+001  1.136500e+002
    endloop
  endfacet
  facet normal  0.000000e+000  1.000000e+000  0.000000e+000
    outer loop
      vertex -4.603706e+000  1.000000e+001  1.136500e+002
      vertex -4.263256e-014  1.000000e+001  1.200000e+002
      vertex  1.243450e-014  1.000000e+001  1.136500e+002
    endloop
  endfacet
  facet normal  0.000000e+000  0.000000e+000  1.000000e+000
    outer loop
      vertex -4.000000e+001  1.000000e+001  1.200000e+002
      vertex -4.000000e+001  0.000000e+000  1.200000e+002
      vertex -4.263256e-014  1.000000e+001  1.200000e+002
    endloop
  endfacet
  facet normal  0.000000e+000  0.000000e+000  1.000000e+000
    outer loop
      vertex -4.263256e-014  1.000000e+001  1.200000e+002
      vertex -4.000000e+001  0.000000e+000  1.200000e+002
      vertex -4.263256e-014  0.000000e+000  1.200000e+002
    endloop
  endfacet
  facet normal  0.000000e+000  0.000000e+000 -1.000000e+000
    outer loop
      vertex  0.000000e+000  1.000000e+001  0.000000e+000
      vertex  0.000000e+000  0.000000e+000  0.000000e+000
      vertex -4.000000e+001  1.000000e+001  0.000000e+000
    endloop
  endfacet
  facet normal  0.000000e+000  0.000000e+000 -1.000000e+000
    outer loop
      vertex -4.000000e+001  1.000000e+001  0.000000e+000
      vertex  0.000000e+000  0.000000e+000  0.000000e+000
      vertex -4.000000e+001  0.000000e+000  0.000000e+000
    endloop
  endfacet
endsolid CATIA STL
